<?xml version="1.0" encoding="UTF-8" standalone="no"?>
<!DOCTYPE svg PUBLIC "-//W3C//DTD SVG 1.1//EN" "http://www.w3.org/Graphics/SVG/1.1/DTD/svg11.dtd">
<svg width="100%" height="100%" viewBox="0 0 499 285" version="1.1" xmlns="http://www.w3.org/2000/svg" xmlns:xlink="http://www.w3.org/1999/xlink" xml:space="preserve" xmlns:serif="http://www.serif.com/" style="fill-rule:evenodd;clip-rule:evenodd;stroke-linejoin:round;stroke-miterlimit:2;">
    <g id="Artboard1" transform="matrix(0.949964,0,0,0.778587,-197.176,-269.003)">
        <rect x="207.561" y="345.501" width="524.971" height="365.746" style="fill:none;"/>
        <g transform="matrix(0.827863,0.270652,-0.221825,1.01009,147.822,-117.582)">
            <g transform="matrix(0.451194,0,0,0.451194,258.407,233.44)">
                <path d="M624.509,392.867C539.292,392.867 470.107,462.052 470.107,547.268C470.107,632.484 539.292,701.669 624.509,701.669C709.725,701.669 778.91,632.484 778.91,547.268C778.91,462.052 709.725,392.867 624.509,392.867ZM624.509,401.944C704.715,401.944 769.832,467.062 769.832,547.268C769.832,627.474 704.715,692.592 624.509,692.592C544.302,692.592 479.185,627.474 479.185,547.268C479.185,467.062 544.302,401.944 624.509,401.944Z" style="fill:white;"/>
                <path d="M624.509,392.867C539.292,392.867 470.107,462.052 470.107,547.268C470.107,632.484 539.292,701.669 624.509,701.669C709.725,701.669 778.91,632.484 778.91,547.268C778.91,462.052 709.725,392.867 624.509,392.867ZM624.509,395.135C708.473,395.135 776.641,463.304 776.641,547.268C776.641,631.232 708.473,699.401 624.509,699.401C540.544,699.401 472.376,631.232 472.376,547.268C472.376,463.304 540.544,395.135 624.509,395.135ZM624.509,399.676C543.05,399.676 476.917,465.81 476.917,547.268C476.917,628.726 543.05,694.86 624.509,694.86C705.967,694.86 772.101,628.726 772.101,547.268C772.101,465.81 705.967,399.676 624.509,399.676ZM624.509,401.944C704.715,401.944 769.832,467.062 769.832,547.268C769.832,627.474 704.715,692.592 624.509,692.592C544.302,692.592 479.185,627.474 479.185,547.268C479.185,467.062 544.302,401.944 624.509,401.944Z" style="fill:rgb(112,177,231);"/>
            </g>
            <g transform="matrix(0.451194,0,0,0.451194,237.39,262.558)">
                <path d="M675.148,208.662C674.38,207.124 672.808,206.153 671.089,206.153C669.37,206.153 667.798,207.124 667.029,208.662L620.94,300.84C620.237,302.247 620.312,303.918 621.139,305.256C621.966,306.594 623.427,307.408 625,307.408L717.178,307.408C718.751,307.408 720.212,306.594 721.039,305.256C721.866,303.918 721.941,302.247 721.237,300.84L675.148,208.662ZM632.344,298.331L709.834,298.331L671.089,220.841L632.344,298.331Z" style="fill:white;"/>
                <path d="M675.148,208.662C674.38,207.124 672.808,206.153 671.089,206.153C669.37,206.153 667.798,207.124 667.029,208.662L620.94,300.84C620.237,302.247 620.312,303.918 621.139,305.256C621.966,306.594 623.427,307.408 625,307.408L717.178,307.408C718.751,307.408 720.212,306.594 721.039,305.256C721.866,303.918 721.941,302.247 721.237,300.84L675.148,208.662ZM673.119,209.676L719.208,301.854C719.56,302.558 719.523,303.394 719.109,304.063C718.695,304.732 717.965,305.14 717.178,305.14L625,305.14C624.213,305.14 623.482,304.732 623.069,304.063C622.655,303.394 622.617,302.558 622.969,301.854L669.058,209.676C669.443,208.907 670.229,208.421 671.089,208.421C671.949,208.421 672.735,208.907 673.119,209.676ZM630.315,297.316C629.963,298.019 630.001,298.855 630.414,299.523C630.828,300.192 631.558,300.599 632.344,300.599L709.834,300.599C710.62,300.599 711.35,300.192 711.763,299.523C712.177,298.855 712.214,298.019 711.863,297.316L673.118,219.826C672.734,219.058 671.948,218.572 671.089,218.572C670.23,218.572 669.444,219.058 669.06,219.826L630.315,297.316ZM632.344,298.331L709.834,298.331L671.089,220.841L632.344,298.331Z" style="fill:rgb(112,177,231);"/>
            </g>
            <g transform="matrix(0.319042,0.319042,-0.319042,0.319042,480.088,112.778)">
                <path d="M675.148,208.662C674.38,207.124 672.808,206.153 671.089,206.153C669.37,206.153 667.798,207.124 667.029,208.662L620.94,300.84C620.237,302.247 620.312,303.918 621.139,305.256C621.966,306.594 623.427,307.408 625,307.408L717.178,307.408C718.751,307.408 720.212,306.594 721.039,305.256C721.866,303.918 721.941,302.247 721.237,300.84L675.148,208.662ZM632.344,298.331L709.834,298.331L671.089,220.841L632.344,298.331Z" style="fill:white;"/>
                <path d="M675.148,208.662C674.38,207.124 672.808,206.153 671.089,206.153C669.37,206.153 667.798,207.124 667.029,208.662L620.94,300.84C620.237,302.247 620.312,303.918 621.139,305.256C621.966,306.594 623.427,307.408 625,307.408L717.178,307.408C718.751,307.408 720.212,306.594 721.039,305.256C721.866,303.918 721.941,302.247 721.237,300.84L675.148,208.662ZM673.119,209.676L719.208,301.854C719.56,302.558 719.523,303.394 719.109,304.063C718.695,304.732 717.965,305.14 717.178,305.14L625,305.14C624.213,305.14 623.482,304.732 623.069,304.063C622.655,303.394 622.617,302.558 622.969,301.854L669.058,209.676C669.443,208.907 670.229,208.421 671.089,208.421C671.949,208.421 672.735,208.907 673.119,209.676ZM630.315,297.316C629.963,298.019 630.001,298.855 630.414,299.523C630.828,300.192 631.558,300.599 632.344,300.599L709.834,300.599C710.62,300.599 711.35,300.192 711.763,299.523C712.177,298.855 712.214,298.019 711.863,297.316L673.118,219.826C672.734,219.058 671.948,218.572 671.089,218.572C670.23,218.572 669.444,219.058 669.06,219.826L630.315,297.316ZM632.344,298.331L709.834,298.331L671.089,220.841L632.344,298.331Z" style="fill:rgb(112,177,231);"/>
            </g>
            <g transform="matrix(2.76276e-17,-0.451194,0.451194,2.76276e-17,322.376,783.687)">
                <path d="M675.148,208.662C674.38,207.124 672.808,206.153 671.089,206.153C669.37,206.153 667.798,207.124 667.029,208.662L620.94,300.84C620.237,302.247 620.312,303.918 621.139,305.256C621.966,306.594 623.427,307.408 625,307.408L717.178,307.408C718.751,307.408 720.212,306.594 721.039,305.256C721.866,303.918 721.941,302.247 721.237,300.84L675.148,208.662ZM671.089,220.841L632.344,298.331L709.834,298.331L671.089,220.841Z" style="fill:white;"/>
                <path d="M675.148,208.662C674.38,207.124 672.808,206.153 671.089,206.153C669.37,206.153 667.798,207.124 667.029,208.662L620.94,300.84C620.237,302.247 620.312,303.918 621.139,305.256C621.966,306.594 623.427,307.408 625,307.408L717.178,307.408C718.751,307.408 720.212,306.594 721.039,305.256C721.866,303.918 721.941,302.247 721.237,300.84L675.148,208.662ZM673.119,209.676L719.208,301.854C719.56,302.558 719.523,303.394 719.109,304.063C718.695,304.732 717.965,305.14 717.178,305.14L625,305.14C624.213,305.14 623.482,304.732 623.069,304.063C622.655,303.394 622.617,302.558 622.969,301.854L669.058,209.676C669.443,208.907 670.229,208.421 671.089,208.421C671.949,208.421 672.735,208.907 673.119,209.676ZM673.118,219.826C672.734,219.058 671.948,218.572 671.089,218.572C670.23,218.572 669.444,219.058 669.06,219.826L630.315,297.316C629.963,298.019 630.001,298.855 630.414,299.523C630.828,300.192 631.558,300.599 632.344,300.599L709.834,300.599C710.62,300.599 711.35,300.192 711.763,299.523C712.177,298.855 712.214,298.019 711.863,297.316L673.118,219.826ZM671.089,220.841L632.344,298.331L709.834,298.331L671.089,220.841Z" style="fill:rgb(112,177,231);"/>
            </g>
            <g transform="matrix(0.319042,-0.319042,0.319042,0.319042,171.688,541.366)">
                <path d="M675.148,208.662C674.38,207.124 672.808,206.153 671.089,206.153C669.37,206.153 667.798,207.124 667.029,208.662L620.94,300.84C620.237,302.247 620.312,303.918 621.139,305.256C621.966,306.594 623.427,307.408 625,307.408L717.178,307.408C718.751,307.408 720.212,306.594 721.039,305.256C721.866,303.918 721.941,302.247 721.237,300.84L675.148,208.662ZM632.344,298.331L709.834,298.331L671.089,220.841L632.344,298.331Z" style="fill:white;"/>
                <path d="M675.148,208.662C674.38,207.124 672.808,206.153 671.089,206.153C669.37,206.153 667.798,207.124 667.029,208.662L620.94,300.84C620.237,302.247 620.312,303.918 621.139,305.256C621.966,306.594 623.427,307.408 625,307.408L717.178,307.408C718.751,307.408 720.212,306.594 721.039,305.256C721.866,303.918 721.941,302.247 721.237,300.84L675.148,208.662ZM673.119,209.676L719.208,301.854C719.56,302.558 719.523,303.394 719.109,304.063C718.695,304.732 717.965,305.14 717.178,305.14L625,305.14C624.213,305.14 623.482,304.732 623.069,304.063C622.655,303.394 622.617,302.558 622.969,301.854L669.058,209.676C669.443,208.907 670.229,208.421 671.089,208.421C671.949,208.421 672.735,208.907 673.119,209.676ZM630.315,297.316C629.963,298.019 630.001,298.855 630.414,299.523C630.828,300.192 631.558,300.599 632.344,300.599L709.834,300.599C710.62,300.599 711.35,300.192 711.763,299.523C712.177,298.855 712.214,298.019 711.863,297.316L673.118,219.826C672.734,219.058 671.948,218.572 671.089,218.572C670.23,218.572 669.444,219.058 669.06,219.826L630.315,297.316ZM632.344,298.331L709.834,298.331L671.089,220.841L632.344,298.331Z" style="fill:rgb(112,177,231);"/>
            </g>
            <g transform="matrix(-2.76276e-17,-0.451194,-0.451194,2.76276e-17,757.987,783.687)">
                <path d="M667.029,208.662C667.798,207.124 669.37,206.153 671.089,206.153C672.808,206.153 674.38,207.124 675.148,208.662L721.237,300.84C721.941,302.247 721.866,303.918 721.039,305.256C720.212,306.594 718.751,307.408 717.178,307.408L625,307.408C623.427,307.408 621.966,306.594 621.139,305.256C620.312,303.918 620.237,302.247 620.94,300.84L667.029,208.662ZM632.344,298.331L671.089,220.841L709.834,298.331L632.344,298.331Z" style="fill:white;"/>
                <path d="M667.029,208.662C667.798,207.124 669.37,206.153 671.089,206.153C672.808,206.153 674.38,207.124 675.148,208.662L721.237,300.84C721.941,302.247 721.866,303.918 721.039,305.256C720.212,306.594 718.751,307.408 717.178,307.408L625,307.408C623.427,307.408 621.966,306.594 621.139,305.256C620.312,303.918 620.237,302.247 620.94,300.84L667.029,208.662ZM669.058,209.676L622.969,301.854C622.617,302.558 622.655,303.394 623.069,304.063C623.482,304.732 624.213,305.14 625,305.14L717.178,305.14C717.965,305.14 718.695,304.732 719.109,304.063C719.523,303.394 719.56,302.558 719.208,301.854L673.119,209.676C672.735,208.907 671.949,208.421 671.089,208.421C670.229,208.421 669.443,208.907 669.058,209.676ZM632.344,300.599C631.558,300.599 630.828,300.192 630.414,299.523C630.001,298.855 629.963,298.019 630.315,297.316L669.06,219.826C669.444,219.058 670.23,218.572 671.089,218.572C671.948,218.572 672.734,219.058 673.118,219.826L711.863,297.316C712.214,298.019 712.177,298.855 711.763,299.523C711.35,300.192 710.62,300.599 709.834,300.599L632.344,300.599ZM632.344,298.331L671.089,220.841L709.834,298.331L632.344,298.331Z" style="fill:rgb(112,177,231);"/>
            </g>
            <g transform="matrix(0.319042,-0.319042,-0.319042,-0.319042,479.711,849.389)">
                <path d="M667.029,208.662C667.798,207.124 669.37,206.153 671.089,206.153C672.808,206.153 674.38,207.124 675.148,208.662L721.237,300.84C721.941,302.247 721.866,303.918 721.039,305.256C720.212,306.594 718.751,307.408 717.178,307.408L625,307.408C623.427,307.408 621.966,306.594 621.139,305.256C620.312,303.918 620.237,302.247 620.94,300.84L667.029,208.662ZM632.344,298.331L671.089,220.841L709.834,298.331L632.344,298.331Z" style="fill:white;"/>
                <path d="M667.029,208.662C667.798,207.124 669.37,206.153 671.089,206.153C672.808,206.153 674.38,207.124 675.148,208.662L721.237,300.84C721.941,302.247 721.866,303.918 721.039,305.256C720.212,306.594 718.751,307.408 717.178,307.408L625,307.408C623.427,307.408 621.966,306.594 621.139,305.256C620.312,303.918 620.237,302.247 620.94,300.84L667.029,208.662ZM669.058,209.676L622.969,301.854C622.617,302.558 622.655,303.394 623.069,304.063C623.482,304.732 624.213,305.14 625,305.14L717.178,305.14C717.965,305.14 718.695,304.732 719.109,304.063C719.523,303.394 719.56,302.558 719.208,301.854L673.119,209.676C672.735,208.907 671.949,208.421 671.089,208.421C670.229,208.421 669.443,208.907 669.058,209.676ZM632.344,300.599C631.558,300.599 630.828,300.192 630.414,299.523C630.001,298.855 629.963,298.019 630.315,297.316L669.06,219.826C669.444,219.058 670.23,218.572 671.089,218.572C671.948,218.572 672.734,219.058 673.118,219.826L711.863,297.316C712.214,298.019 712.177,298.855 711.763,299.523C711.35,300.192 710.62,300.599 709.834,300.599L632.344,300.599ZM632.344,298.331L671.089,220.841L709.834,298.331L632.344,298.331Z" style="fill:rgb(112,177,231);"/>
            </g>
            <g transform="matrix(-0.451194,5.52553e-17,-5.52553e-17,-0.451194,842.972,698.169)">
                <path d="M675.148,208.662C674.38,207.124 672.808,206.153 671.089,206.153C669.37,206.153 667.798,207.124 667.029,208.662L620.94,300.84C620.237,302.247 620.312,303.918 621.139,305.256C621.966,306.594 623.427,307.408 625,307.408L717.178,307.408C718.751,307.408 720.212,306.594 721.039,305.256C721.866,303.918 721.941,302.247 721.237,300.84L675.148,208.662ZM709.834,298.331L671.089,220.841L632.344,298.331L709.834,298.331Z" style="fill:white;"/>
                <path d="M675.148,208.662C674.38,207.124 672.808,206.153 671.089,206.153C669.37,206.153 667.798,207.124 667.029,208.662L620.94,300.84C620.237,302.247 620.312,303.918 621.139,305.256C621.966,306.594 623.427,307.408 625,307.408L717.178,307.408C718.751,307.408 720.212,306.594 721.039,305.256C721.866,303.918 721.941,302.247 721.237,300.84L675.148,208.662ZM673.119,209.676L719.208,301.854C719.56,302.558 719.523,303.394 719.109,304.063C718.695,304.732 717.965,305.14 717.178,305.14L625,305.14C624.213,305.14 623.482,304.732 623.069,304.063C622.655,303.394 622.617,302.558 622.969,301.854L669.058,209.676C669.443,208.907 670.229,208.421 671.089,208.421C671.949,208.421 672.735,208.907 673.119,209.676ZM709.834,300.599C710.62,300.599 711.35,300.192 711.763,299.523C712.177,298.855 712.214,298.019 711.863,297.316L673.118,219.826C672.734,219.058 671.948,218.572 671.089,218.572C670.23,218.572 669.444,219.058 669.06,219.826L630.315,297.316C629.963,298.019 630.001,298.855 630.414,299.523C630.828,300.192 631.558,300.599 632.344,300.599L709.834,300.599ZM709.834,298.331L671.089,220.841L632.344,298.331L709.834,298.331Z" style="fill:rgb(112,177,231);"/>
            </g>
            <g transform="matrix(-0.319042,-0.319042,0.319042,-0.319042,600.275,849.013)">
                <path d="M675.148,208.662C674.38,207.124 672.808,206.153 671.089,206.153C669.37,206.153 667.798,207.124 667.029,208.662L620.94,300.84C620.237,302.247 620.312,303.918 621.139,305.256C621.966,306.594 623.427,307.408 625,307.408L717.178,307.408C718.751,307.408 720.212,306.594 721.039,305.256C721.866,303.918 721.941,302.247 721.237,300.84L675.148,208.662ZM671.089,220.841L632.344,298.331L709.834,298.331L671.089,220.841Z" style="fill:white;"/>
                <path d="M675.148,208.662C674.38,207.124 672.808,206.153 671.089,206.153C669.37,206.153 667.798,207.124 667.029,208.662L620.94,300.84C620.237,302.247 620.312,303.918 621.139,305.256C621.966,306.594 623.427,307.408 625,307.408L717.178,307.408C718.751,307.408 720.212,306.594 721.039,305.256C721.866,303.918 721.941,302.247 721.237,300.84L675.148,208.662ZM673.119,209.676L719.208,301.854C719.56,302.558 719.523,303.394 719.109,304.063C718.695,304.732 717.965,305.14 717.178,305.14L625,305.14C624.213,305.14 623.482,304.732 623.069,304.063C622.655,303.394 622.617,302.558 622.969,301.854L669.058,209.676C669.443,208.907 670.229,208.421 671.089,208.421C671.949,208.421 672.735,208.907 673.119,209.676ZM673.118,219.826C672.734,219.058 671.948,218.572 671.089,218.572C670.23,218.572 669.444,219.058 669.06,219.826L630.315,297.316C629.963,298.019 630.001,298.855 630.414,299.523C630.828,300.192 631.558,300.599 632.344,300.599L709.834,300.599C710.62,300.599 711.35,300.192 711.763,299.523C712.177,298.855 712.214,298.019 711.863,297.316L673.118,219.826ZM671.089,220.841L632.344,298.331L709.834,298.331L671.089,220.841Z" style="fill:rgb(112,177,231);"/>
            </g>
        </g>
        <g transform="matrix(1.06346,0,0,1.29754,-54.8526,-216.72)">
            <g transform="matrix(83.5996,-10.433,10.433,83.5996,335.618,558.654)">
                <path d="M0.028,-0.599C0.028,-0.646 0.042,-0.684 0.069,-0.713C0.096,-0.742 0.133,-0.756 0.18,-0.756L0.394,-0.756C0.441,-0.756 0.478,-0.742 0.505,-0.713C0.532,-0.684 0.546,-0.646 0.546,-0.599L0.546,-0.413C0.546,-0.366 0.532,-0.329 0.505,-0.3C0.478,-0.271 0.441,-0.256 0.394,-0.256L0.18,-0.256C0.133,-0.256 0.096,-0.271 0.069,-0.3C0.042,-0.329 0.028,-0.366 0.028,-0.413L0.028,-0.599ZM0.231,-0.464C0.231,-0.443 0.234,-0.43 0.241,-0.424C0.248,-0.417 0.256,-0.414 0.267,-0.414L0.307,-0.414C0.318,-0.414 0.326,-0.417 0.333,-0.424C0.34,-0.43 0.343,-0.443 0.343,-0.464L0.343,-0.548C0.343,-0.569 0.34,-0.583 0.333,-0.589C0.326,-0.595 0.318,-0.598 0.307,-0.598L0.267,-0.598C0.256,-0.598 0.248,-0.595 0.241,-0.589C0.234,-0.583 0.231,-0.569 0.231,-0.548L0.231,-0.464ZM0.785,-0.588L0.917,-0.588L0.917,-0.474C0.917,-0.453 0.911,-0.438 0.899,-0.429C0.886,-0.42 0.869,-0.415 0.847,-0.415L0.785,-0.415L0.785,-0.317C0.785,-0.296 0.778,-0.28 0.764,-0.268C0.75,-0.255 0.731,-0.249 0.708,-0.249L0.582,-0.249L0.582,-0.753L0.785,-0.753L0.785,-0.588ZM0.06,-0.224L0.785,-0.224L0.785,0.103C0.785,0.123 0.779,0.138 0.768,0.149C0.757,0.16 0.741,0.166 0.72,0.166L0.125,0.166C0.104,0.166 0.088,0.16 0.077,0.149C0.066,0.138 0.06,0.123 0.06,0.103L0.06,-0.224ZM0.582,0.01L0.582,-0.068L0.262,-0.068L0.262,0.01L0.582,0.01Z" style="fill:rgb(166,223,255);fill-rule:nonzero;"/>
            </g>
            <g transform="matrix(83.7809,8.85995,-8.85995,83.7809,403.869,547.689)">
                <path d="M0.833,-0.678C0.833,-0.659 0.828,-0.645 0.818,-0.635C0.808,-0.626 0.793,-0.622 0.774,-0.622L0.275,-0.622L0.275,-0.59L0.833,-0.59L0.833,-0.522C0.833,-0.503 0.828,-0.489 0.818,-0.48C0.808,-0.47 0.793,-0.466 0.774,-0.466L0.275,-0.466L0.275,-0.434L0.838,-0.434L0.838,-0.356C0.838,-0.337 0.833,-0.323 0.823,-0.314C0.813,-0.305 0.798,-0.3 0.779,-0.3L0.132,-0.3C0.113,-0.3 0.098,-0.305 0.088,-0.314C0.078,-0.323 0.073,-0.337 0.073,-0.356L0.073,-0.755L0.833,-0.755L0.833,-0.678ZM0.088,-0.116C0.067,-0.116 0.051,-0.121 0.04,-0.131C0.029,-0.14 0.024,-0.156 0.024,-0.177L0.024,-0.27L0.882,-0.27L0.882,-0.177C0.882,-0.156 0.877,-0.14 0.866,-0.131C0.855,-0.121 0.839,-0.116 0.818,-0.116L0.088,-0.116ZM0.139,0.166C0.118,0.166 0.102,0.16 0.091,0.149C0.079,0.138 0.073,0.123 0.073,0.103L0.073,-0.095L0.277,-0.095L0.277,0.011L0.833,0.011L0.833,0.103C0.833,0.123 0.827,0.138 0.815,0.149C0.803,0.16 0.787,0.166 0.766,0.166L0.139,0.166Z" style="fill:rgb(166,223,255);fill-rule:nonzero;"/>
            </g>
            <g transform="matrix(1,0,0,1,15.5085,51.4019)">
                <g transform="matrix(106.426,0,0,106.426,294.391,617.488)">
                    <path d="M0.072,-0.599C0.072,-0.646 0.086,-0.684 0.113,-0.713C0.14,-0.742 0.177,-0.756 0.224,-0.756L0.413,-0.756C0.46,-0.756 0.497,-0.742 0.524,-0.713C0.551,-0.684 0.565,-0.646 0.565,-0.599L0.565,-0.572L0.629,-0.572L0.629,-0.753L0.831,-0.753L0.831,0.036C0.831,0.073 0.819,0.103 0.794,0.128C0.769,0.153 0.738,0.166 0.701,0.166L0.629,0.166L0.629,-0.036L0.584,-0.036C0.577,-0.036 0.571,-0.037 0.565,-0.038L0.565,0.005C0.565,0.052 0.551,0.089 0.524,0.118C0.497,0.147 0.46,0.162 0.413,0.162L0.224,0.162C0.177,0.162 0.14,0.147 0.113,0.118C0.086,0.089 0.072,0.052 0.072,0.005L0.072,-0.599ZM0.275,-0.044C0.275,-0.023 0.278,-0.01 0.285,-0.004C0.292,0.003 0.3,0.006 0.311,0.006L0.326,0.006C0.337,0.006 0.345,0.003 0.352,-0.004C0.359,-0.01 0.362,-0.023 0.362,-0.044L0.362,-0.55C0.362,-0.571 0.359,-0.585 0.352,-0.591C0.345,-0.597 0.337,-0.6 0.326,-0.6L0.311,-0.6C0.3,-0.6 0.292,-0.597 0.285,-0.591C0.278,-0.585 0.275,-0.571 0.275,-0.55L0.275,-0.044ZM0.584,-0.415C0.577,-0.415 0.571,-0.416 0.565,-0.417L0.565,-0.19L0.629,-0.19L0.629,-0.415L0.584,-0.415Z" style="fill:rgb(166,223,255);fill-rule:nonzero;"/>
                </g>
                <g transform="matrix(106.426,0,0,106.426,390.813,617.488)">
                    <path d="M0.832,-0.551C0.832,-0.532 0.828,-0.518 0.819,-0.51C0.81,-0.502 0.795,-0.498 0.776,-0.498L0.276,-0.498L0.276,-0.474L0.84,-0.474L0.84,-0.407C0.84,-0.388 0.835,-0.374 0.825,-0.365C0.815,-0.356 0.8,-0.351 0.781,-0.351L0.133,-0.351C0.114,-0.351 0.099,-0.356 0.089,-0.365C0.079,-0.374 0.074,-0.388 0.074,-0.407L0.074,-0.61L0.629,-0.61L0.629,-0.633L0.125,-0.633C0.106,-0.633 0.092,-0.637 0.083,-0.645C0.074,-0.653 0.069,-0.667 0.069,-0.686L0.069,-0.754L0.832,-0.754L0.832,-0.551ZM0.088,-0.183C0.067,-0.183 0.051,-0.188 0.04,-0.198C0.029,-0.207 0.024,-0.223 0.024,-0.244L0.024,-0.324L0.882,-0.324L0.882,-0.244C0.882,-0.223 0.877,-0.207 0.866,-0.198C0.855,-0.188 0.839,-0.183 0.818,-0.183L0.088,-0.183ZM0.072,-0.154L0.834,-0.154L0.834,0.103C0.834,0.123 0.828,0.138 0.817,0.149C0.806,0.16 0.79,0.166 0.769,0.166L0.137,0.166C0.116,0.166 0.1,0.16 0.089,0.149C0.078,0.138 0.072,0.123 0.072,0.103L0.072,-0.154ZM0.631,0.022L0.631,-0.007L0.274,-0.007L0.274,0.022L0.631,0.022Z" style="fill:rgb(166,223,255);fill-rule:nonzero;"/>
                </g>
            </g>
            <g transform="matrix(74.6454,0,0,74.6454,509.299,680.942)">
                <path d="M0.072,-0.599C0.072,-0.646 0.086,-0.684 0.113,-0.713C0.14,-0.742 0.177,-0.756 0.224,-0.756L0.413,-0.756C0.46,-0.756 0.497,-0.742 0.524,-0.713C0.551,-0.684 0.565,-0.646 0.565,-0.599L0.565,0.005C0.565,0.052 0.551,0.089 0.524,0.118C0.497,0.147 0.46,0.162 0.413,0.162L0.224,0.162C0.177,0.162 0.14,0.147 0.113,0.118C0.086,0.089 0.072,0.052 0.072,0.005L0.072,-0.599ZM0.275,-0.044C0.275,-0.023 0.278,-0.01 0.285,-0.004C0.292,0.003 0.3,0.006 0.311,0.006L0.326,0.006C0.337,0.006 0.345,0.003 0.352,-0.004C0.359,-0.01 0.362,-0.023 0.362,-0.044L0.362,-0.55C0.362,-0.571 0.359,-0.585 0.352,-0.591C0.345,-0.597 0.337,-0.6 0.326,-0.6L0.311,-0.6C0.3,-0.6 0.292,-0.597 0.285,-0.591C0.278,-0.585 0.275,-0.571 0.275,-0.55L0.275,-0.044ZM0.824,0.036C0.824,0.073 0.812,0.103 0.787,0.128C0.761,0.153 0.731,0.166 0.694,0.166L0.621,0.166L0.621,-0.753L0.824,-0.753L0.824,0.036Z" style="fill:rgb(166,223,255);fill-rule:nonzero;"/>
            </g>
            <g transform="matrix(74.6454,0,0,74.6454,576.928,680.942)">
                <path d="M0.828,-0.316C0.828,-0.295 0.821,-0.279 0.807,-0.267C0.793,-0.254 0.774,-0.248 0.751,-0.248L0.625,-0.248L0.625,-0.432L0.561,-0.432L0.561,-0.413C0.561,-0.366 0.547,-0.329 0.52,-0.3C0.493,-0.271 0.456,-0.256 0.409,-0.256L0.195,-0.256C0.148,-0.256 0.111,-0.271 0.084,-0.3C0.057,-0.329 0.043,-0.366 0.043,-0.413L0.043,-0.599C0.043,-0.646 0.057,-0.684 0.084,-0.713C0.111,-0.742 0.148,-0.756 0.195,-0.756L0.409,-0.756C0.456,-0.756 0.493,-0.742 0.52,-0.713C0.547,-0.684 0.561,-0.646 0.561,-0.599L0.561,-0.586L0.625,-0.586L0.625,-0.753L0.828,-0.753L0.828,-0.316ZM0.497,0.171C0.474,0.166 0.447,0.153 0.416,0.133C0.385,0.114 0.359,0.092 0.34,0.069C0.321,0.094 0.29,0.117 0.248,0.139C0.206,0.161 0.161,0.172 0.113,0.172L0.113,0.019C0.152,0.012 0.183,-0.006 0.205,-0.035C0.227,-0.063 0.238,-0.095 0.238,-0.132L0.238,-0.223L0.44,-0.223L0.44,-0.13C0.44,-0.104 0.445,-0.08 0.456,-0.059C0.466,-0.038 0.479,-0.022 0.494,-0.013C0.509,-0.022 0.522,-0.038 0.532,-0.059C0.542,-0.08 0.547,-0.104 0.547,-0.13L0.547,-0.223L0.75,-0.223L0.75,-0.132C0.75,-0.095 0.761,-0.063 0.783,-0.035C0.805,-0.006 0.836,0.012 0.875,0.019L0.875,0.172C0.827,0.172 0.782,0.161 0.74,0.139C0.698,0.117 0.667,0.094 0.648,0.069C0.629,0.092 0.605,0.113 0.575,0.132C0.544,0.152 0.518,0.165 0.497,0.171ZM0.246,-0.464C0.246,-0.443 0.249,-0.43 0.256,-0.424C0.263,-0.417 0.271,-0.414 0.282,-0.414L0.322,-0.414C0.333,-0.414 0.341,-0.417 0.348,-0.424C0.355,-0.43 0.358,-0.443 0.358,-0.464L0.358,-0.548C0.358,-0.569 0.355,-0.583 0.348,-0.589C0.341,-0.595 0.333,-0.598 0.322,-0.598L0.282,-0.598C0.271,-0.598 0.263,-0.595 0.256,-0.589C0.249,-0.583 0.246,-0.569 0.246,-0.548L0.246,-0.464Z" style="fill:rgb(166,223,255);fill-rule:nonzero;"/>
            </g>
            <g transform="matrix(74.6454,0,0,74.6454,644.557,680.942)">
                <path d="M0.784,-0.442L0.923,-0.442L0.923,-0.332C0.923,-0.309 0.916,-0.293 0.902,-0.283C0.887,-0.273 0.868,-0.268 0.844,-0.268L0.784,-0.268L0.784,0.036C0.784,0.073 0.772,0.103 0.747,0.128C0.722,0.153 0.691,0.166 0.654,0.166L0.581,0.166L0.581,0.131C0.547,0.144 0.514,0.152 0.481,0.156C0.448,0.161 0.418,0.163 0.392,0.163L0.118,0.163C0.095,0.163 0.078,0.157 0.066,0.145C0.054,0.134 0.048,0.117 0.048,0.094L0.048,-0.75L0.535,-0.75L0.536,-0.649C0.536,-0.63 0.531,-0.616 0.521,-0.607C0.511,-0.598 0.496,-0.593 0.477,-0.593L0.251,-0.594L0.251,0.008L0.397,0.008C0.424,0.008 0.454,0.006 0.486,0.001C0.517,-0.002 0.548,-0.01 0.581,-0.021L0.581,-0.753L0.784,-0.753L0.784,-0.442Z" style="fill:rgb(166,223,255);fill-rule:nonzero;"/>
            </g>
        </g>
        <g transform="matrix(1.05267,0,0,1.28438,-37.9929,-152.18)">
            <g transform="matrix(83.5996,-10.433,10.433,83.5996,320.109,507.252)">
                <path d="M0.558,-0.671L0.558,-0.753C0.558,-0.766 0.569,-0.777 0.582,-0.777L0.785,-0.777C0.798,-0.777 0.809,-0.766 0.809,-0.753L0.809,-0.612L0.917,-0.612C0.93,-0.612 0.941,-0.601 0.941,-0.588L0.941,-0.474C0.941,-0.444 0.93,-0.423 0.913,-0.41C0.897,-0.398 0.875,-0.391 0.847,-0.391L0.809,-0.391L0.809,-0.317C0.809,-0.289 0.799,-0.267 0.78,-0.25C0.779,-0.249 0.778,-0.248 0.777,-0.248L0.785,-0.248C0.798,-0.248 0.809,-0.237 0.809,-0.224L0.809,0.103C0.809,0.13 0.8,0.151 0.785,0.167C0.769,0.181 0.748,0.19 0.72,0.19L0.125,0.19C0.097,0.19 0.076,0.181 0.06,0.167C0.045,0.151 0.036,0.13 0.036,0.103L0.036,-0.224C0.036,-0.237 0.047,-0.248 0.06,-0.248L0.101,-0.248C0.083,-0.256 0.066,-0.268 0.052,-0.283C0.02,-0.316 0.004,-0.36 0.004,-0.413L0.004,-0.599C0.004,-0.653 0.021,-0.697 0.052,-0.729C0.083,-0.763 0.126,-0.78 0.18,-0.78L0.394,-0.78C0.448,-0.78 0.491,-0.763 0.522,-0.729C0.538,-0.713 0.55,-0.693 0.558,-0.671ZM0.761,-0.2L0.084,-0.2L0.084,0.103C0.084,0.116 0.086,0.126 0.094,0.132C0.101,0.14 0.112,0.142 0.125,0.142L0.72,0.142C0.733,0.142 0.744,0.14 0.751,0.132C0.759,0.126 0.761,0.116 0.761,0.103L0.761,-0.2ZM0.582,0.034C0.595,0.034 0.606,0.023 0.606,0.01L0.606,-0.068C0.606,-0.081 0.595,-0.092 0.582,-0.092L0.262,-0.092C0.249,-0.092 0.238,-0.081 0.238,-0.068L0.238,0.01C0.238,0.023 0.249,0.034 0.262,0.034L0.582,0.034ZM0.286,-0.044L0.286,-0.014L0.558,-0.014L0.558,-0.044L0.286,-0.044ZM0.052,-0.599C0.052,-0.639 0.063,-0.672 0.086,-0.697C0.109,-0.721 0.141,-0.732 0.18,-0.732L0.394,-0.732C0.433,-0.732 0.465,-0.721 0.488,-0.697C0.511,-0.672 0.522,-0.639 0.522,-0.599L0.522,-0.413C0.522,-0.373 0.511,-0.341 0.488,-0.316C0.465,-0.291 0.433,-0.28 0.394,-0.28L0.18,-0.28C0.141,-0.28 0.109,-0.291 0.086,-0.316C0.063,-0.341 0.052,-0.373 0.052,-0.413L0.052,-0.599ZM0.558,-0.342C0.55,-0.32 0.538,-0.3 0.522,-0.283C0.508,-0.268 0.491,-0.256 0.473,-0.248L0.558,-0.248L0.558,-0.342ZM0.761,-0.729L0.606,-0.729L0.606,-0.273L0.708,-0.273C0.725,-0.273 0.738,-0.276 0.748,-0.285C0.757,-0.293 0.761,-0.304 0.761,-0.317L0.761,-0.415C0.761,-0.428 0.772,-0.439 0.785,-0.439L0.847,-0.439C0.863,-0.439 0.875,-0.441 0.884,-0.448C0.891,-0.453 0.893,-0.462 0.893,-0.474L0.893,-0.564L0.785,-0.564C0.772,-0.564 0.761,-0.575 0.761,-0.588L0.761,-0.729ZM0.207,-0.464C0.207,-0.434 0.215,-0.415 0.225,-0.406C0.236,-0.396 0.25,-0.39 0.267,-0.39L0.307,-0.39C0.324,-0.39 0.338,-0.396 0.349,-0.406C0.359,-0.415 0.367,-0.434 0.367,-0.464L0.367,-0.548C0.367,-0.579 0.359,-0.598 0.349,-0.607C0.338,-0.616 0.324,-0.622 0.307,-0.622L0.267,-0.622C0.25,-0.622 0.236,-0.616 0.225,-0.607C0.215,-0.598 0.207,-0.579 0.207,-0.548L0.207,-0.464ZM0.316,-0.572C0.314,-0.574 0.311,-0.574 0.307,-0.574L0.267,-0.574C0.263,-0.574 0.26,-0.574 0.258,-0.572C0.257,-0.57 0.255,-0.558 0.255,-0.548L0.255,-0.464C0.255,-0.457 0.255,-0.452 0.256,-0.447C0.256,-0.444 0.258,-0.441 0.258,-0.44C0.26,-0.438 0.263,-0.438 0.267,-0.438L0.307,-0.438C0.311,-0.438 0.314,-0.438 0.316,-0.44C0.316,-0.441 0.318,-0.444 0.318,-0.447C0.319,-0.452 0.319,-0.457 0.319,-0.464L0.319,-0.548C0.319,-0.558 0.317,-0.57 0.316,-0.572Z" style="fill:white;"/>
                <path d="M0.558,-0.671L0.558,-0.753C0.558,-0.766 0.569,-0.777 0.582,-0.777L0.785,-0.777C0.798,-0.777 0.809,-0.766 0.809,-0.753L0.809,-0.612L0.917,-0.612C0.93,-0.612 0.941,-0.601 0.941,-0.588L0.941,-0.474C0.941,-0.444 0.93,-0.423 0.913,-0.41C0.897,-0.398 0.875,-0.391 0.847,-0.391L0.809,-0.391L0.809,-0.317C0.809,-0.289 0.799,-0.267 0.78,-0.25C0.779,-0.249 0.778,-0.248 0.777,-0.248L0.785,-0.248C0.798,-0.248 0.809,-0.237 0.809,-0.224L0.809,0.103C0.809,0.13 0.8,0.151 0.785,0.167C0.769,0.181 0.748,0.19 0.72,0.19L0.125,0.19C0.097,0.19 0.076,0.181 0.06,0.167C0.045,0.151 0.036,0.13 0.036,0.103L0.036,-0.224C0.036,-0.237 0.047,-0.248 0.06,-0.248L0.101,-0.248C0.083,-0.256 0.066,-0.268 0.052,-0.283C0.02,-0.316 0.004,-0.36 0.004,-0.413L0.004,-0.599C0.004,-0.653 0.021,-0.697 0.052,-0.729C0.083,-0.763 0.126,-0.78 0.18,-0.78L0.394,-0.78C0.448,-0.78 0.491,-0.763 0.522,-0.729C0.538,-0.713 0.55,-0.693 0.558,-0.671ZM0.538,-0.663C0.541,-0.653 0.551,-0.647 0.562,-0.649C0.573,-0.651 0.58,-0.66 0.58,-0.671L0.58,-0.753C0.58,-0.754 0.581,-0.755 0.582,-0.755L0.785,-0.755C0.786,-0.755 0.787,-0.754 0.787,-0.753L0.787,-0.612C0.787,-0.6 0.797,-0.59 0.809,-0.59L0.917,-0.59C0.918,-0.59 0.919,-0.589 0.919,-0.588L0.919,-0.474C0.919,-0.453 0.912,-0.437 0.9,-0.428C0.887,-0.418 0.869,-0.413 0.847,-0.413L0.809,-0.413C0.797,-0.413 0.787,-0.403 0.787,-0.391L0.787,-0.317C0.787,-0.296 0.78,-0.279 0.765,-0.266C0.765,-0.266 0.764,-0.265 0.763,-0.265C0.756,-0.259 0.754,-0.249 0.757,-0.24C0.76,-0.232 0.768,-0.226 0.777,-0.226L0.785,-0.226C0.786,-0.226 0.787,-0.225 0.787,-0.224L0.787,0.103C0.787,0.124 0.781,0.139 0.769,0.151C0.758,0.162 0.741,0.168 0.72,0.168L0.125,0.168C0.104,0.168 0.087,0.162 0.076,0.151C0.064,0.139 0.058,0.124 0.058,0.103L0.058,-0.224C0.058,-0.225 0.059,-0.226 0.06,-0.226L0.101,-0.226C0.112,-0.226 0.121,-0.233 0.123,-0.243C0.125,-0.253 0.12,-0.264 0.11,-0.268C0.094,-0.275 0.08,-0.285 0.068,-0.298C0.04,-0.328 0.026,-0.366 0.026,-0.413L0.026,-0.599C0.026,-0.647 0.04,-0.685 0.068,-0.714C0.095,-0.743 0.133,-0.758 0.18,-0.758L0.394,-0.758C0.441,-0.758 0.479,-0.743 0.506,-0.714C0.52,-0.7 0.531,-0.683 0.538,-0.663ZM0.783,-0.2C0.783,-0.212 0.773,-0.222 0.761,-0.222L0.084,-0.222C0.072,-0.222 0.062,-0.212 0.062,-0.2L0.062,0.103C0.062,0.122 0.067,0.138 0.078,0.148C0.089,0.159 0.105,0.164 0.125,0.164L0.72,0.164C0.74,0.164 0.756,0.159 0.767,0.148C0.778,0.138 0.783,0.122 0.783,0.103L0.783,-0.2ZM0.761,-0.2L0.084,-0.2L0.084,0.103C0.084,0.116 0.086,0.126 0.094,0.132C0.101,0.14 0.112,0.142 0.125,0.142L0.72,0.142C0.733,0.142 0.744,0.14 0.751,0.132C0.759,0.126 0.761,0.116 0.761,0.103L0.761,-0.2ZM0.582,0.034C0.595,0.034 0.606,0.023 0.606,0.01L0.606,-0.068C0.606,-0.081 0.595,-0.092 0.582,-0.092L0.262,-0.092C0.249,-0.092 0.238,-0.081 0.238,-0.068L0.238,0.01C0.238,0.023 0.249,0.034 0.262,0.034L0.582,0.034ZM0.582,0.012L0.262,0.012C0.261,0.012 0.26,0.011 0.26,0.01L0.26,-0.068C0.26,-0.069 0.261,-0.07 0.262,-0.07L0.582,-0.07C0.583,-0.07 0.584,-0.069 0.584,-0.068L0.584,0.01C0.584,0.011 0.583,0.012 0.582,0.012ZM0.286,-0.066C0.274,-0.066 0.264,-0.056 0.264,-0.044L0.264,-0.014C0.264,-0.002 0.274,0.008 0.286,0.008L0.558,0.008C0.57,0.008 0.58,-0.002 0.58,-0.014L0.58,-0.044C0.58,-0.056 0.57,-0.066 0.558,-0.066L0.286,-0.066ZM0.286,-0.044L0.286,-0.014L0.558,-0.014L0.558,-0.044L0.286,-0.044ZM0.03,-0.599L0.03,-0.413C0.03,-0.367 0.043,-0.329 0.07,-0.301C0.097,-0.272 0.134,-0.258 0.18,-0.258L0.394,-0.258C0.44,-0.258 0.477,-0.272 0.504,-0.301C0.531,-0.329 0.544,-0.367 0.544,-0.413L0.544,-0.599C0.544,-0.646 0.531,-0.683 0.504,-0.712C0.477,-0.74 0.44,-0.754 0.394,-0.754L0.18,-0.754C0.134,-0.754 0.097,-0.74 0.07,-0.712C0.043,-0.683 0.03,-0.646 0.03,-0.599ZM0.58,-0.342C0.58,-0.353 0.573,-0.362 0.562,-0.364C0.551,-0.366 0.541,-0.36 0.538,-0.349C0.531,-0.33 0.52,-0.313 0.506,-0.298C0.494,-0.285 0.48,-0.275 0.464,-0.268C0.454,-0.264 0.449,-0.253 0.451,-0.243C0.453,-0.233 0.462,-0.226 0.473,-0.226L0.558,-0.226C0.564,-0.226 0.57,-0.228 0.574,-0.233C0.578,-0.237 0.581,-0.243 0.58,-0.249L0.58,-0.342ZM0.052,-0.599C0.052,-0.639 0.063,-0.672 0.086,-0.697C0.109,-0.721 0.141,-0.732 0.18,-0.732L0.394,-0.732C0.433,-0.732 0.465,-0.721 0.488,-0.697C0.511,-0.672 0.522,-0.639 0.522,-0.599L0.522,-0.413C0.522,-0.373 0.511,-0.341 0.488,-0.316C0.465,-0.291 0.433,-0.28 0.394,-0.28L0.18,-0.28C0.141,-0.28 0.109,-0.291 0.086,-0.316C0.063,-0.341 0.052,-0.373 0.052,-0.413L0.052,-0.599ZM0.558,-0.342C0.55,-0.32 0.538,-0.3 0.522,-0.283C0.508,-0.268 0.491,-0.256 0.473,-0.248L0.558,-0.248L0.558,-0.342ZM0.783,-0.729C0.783,-0.741 0.773,-0.751 0.761,-0.751L0.606,-0.751C0.594,-0.751 0.584,-0.741 0.584,-0.729L0.584,-0.273C0.584,-0.261 0.594,-0.251 0.606,-0.251L0.708,-0.251C0.731,-0.251 0.749,-0.257 0.763,-0.269C0.776,-0.281 0.783,-0.297 0.783,-0.317L0.783,-0.415C0.783,-0.416 0.784,-0.417 0.785,-0.417L0.847,-0.417C0.869,-0.417 0.885,-0.421 0.897,-0.43C0.909,-0.439 0.915,-0.454 0.915,-0.474L0.915,-0.564C0.915,-0.576 0.905,-0.586 0.893,-0.586L0.785,-0.586C0.784,-0.586 0.783,-0.587 0.783,-0.588L0.783,-0.729ZM0.761,-0.729L0.606,-0.729L0.606,-0.273L0.708,-0.273C0.725,-0.273 0.738,-0.276 0.748,-0.285C0.757,-0.293 0.761,-0.304 0.761,-0.317L0.761,-0.415C0.761,-0.428 0.772,-0.439 0.785,-0.439L0.847,-0.439C0.863,-0.439 0.875,-0.441 0.884,-0.448C0.891,-0.453 0.893,-0.462 0.893,-0.474L0.893,-0.564L0.785,-0.564C0.772,-0.564 0.761,-0.575 0.761,-0.588L0.761,-0.729ZM0.207,-0.464C0.207,-0.434 0.215,-0.415 0.225,-0.406C0.236,-0.396 0.25,-0.39 0.267,-0.39L0.307,-0.39C0.324,-0.39 0.338,-0.396 0.349,-0.406C0.359,-0.415 0.367,-0.434 0.367,-0.464L0.367,-0.548C0.367,-0.579 0.359,-0.598 0.349,-0.607C0.338,-0.616 0.324,-0.622 0.307,-0.622L0.267,-0.622C0.25,-0.622 0.236,-0.616 0.225,-0.607C0.215,-0.598 0.207,-0.579 0.207,-0.548L0.207,-0.464ZM0.229,-0.464L0.229,-0.548C0.229,-0.57 0.233,-0.584 0.24,-0.59C0.247,-0.597 0.256,-0.6 0.267,-0.6L0.307,-0.6C0.318,-0.6 0.327,-0.597 0.334,-0.59C0.341,-0.584 0.345,-0.57 0.345,-0.548L0.345,-0.464C0.345,-0.443 0.341,-0.429 0.334,-0.422C0.327,-0.416 0.318,-0.412 0.307,-0.412L0.267,-0.412C0.256,-0.412 0.247,-0.416 0.24,-0.422C0.233,-0.429 0.229,-0.443 0.229,-0.464ZM0.338,-0.577C0.336,-0.582 0.333,-0.587 0.329,-0.59C0.323,-0.594 0.316,-0.596 0.307,-0.596L0.267,-0.596C0.258,-0.596 0.251,-0.594 0.245,-0.59C0.241,-0.587 0.238,-0.582 0.236,-0.577C0.236,-0.574 0.233,-0.56 0.233,-0.548L0.233,-0.464C0.233,-0.456 0.233,-0.449 0.234,-0.443C0.235,-0.439 0.237,-0.434 0.237,-0.433C0.239,-0.429 0.241,-0.426 0.244,-0.423C0.25,-0.418 0.258,-0.416 0.267,-0.416L0.307,-0.416C0.316,-0.416 0.324,-0.418 0.33,-0.423C0.333,-0.426 0.335,-0.429 0.337,-0.433C0.337,-0.434 0.339,-0.439 0.34,-0.443C0.341,-0.449 0.341,-0.456 0.341,-0.464L0.341,-0.548C0.341,-0.56 0.338,-0.574 0.338,-0.577ZM0.316,-0.572C0.314,-0.574 0.311,-0.574 0.307,-0.574L0.267,-0.574C0.263,-0.574 0.26,-0.574 0.258,-0.572C0.257,-0.57 0.255,-0.558 0.255,-0.548L0.255,-0.464C0.255,-0.457 0.255,-0.452 0.256,-0.447C0.256,-0.444 0.258,-0.441 0.258,-0.44C0.26,-0.438 0.263,-0.438 0.267,-0.438L0.307,-0.438C0.311,-0.438 0.314,-0.438 0.316,-0.44C0.316,-0.441 0.318,-0.444 0.318,-0.447C0.319,-0.452 0.319,-0.457 0.319,-0.464L0.319,-0.548C0.319,-0.558 0.317,-0.57 0.316,-0.572Z" style="fill:white;"/>
            </g>
            <g transform="matrix(83.7809,8.85995,-8.85995,83.7809,388.36,496.287)">
                <path d="M0.075,-0.294C0.074,-0.294 0.073,-0.295 0.072,-0.296C0.058,-0.309 0.049,-0.328 0.049,-0.356L0.049,-0.755C0.049,-0.768 0.06,-0.779 0.073,-0.779L0.833,-0.779C0.846,-0.779 0.857,-0.768 0.857,-0.755L0.857,-0.678C0.857,-0.65 0.848,-0.631 0.834,-0.618C0.832,-0.616 0.831,-0.615 0.829,-0.614L0.833,-0.614C0.846,-0.614 0.857,-0.603 0.857,-0.59L0.857,-0.522C0.857,-0.494 0.848,-0.475 0.834,-0.462C0.832,-0.46 0.831,-0.459 0.829,-0.458L0.838,-0.458C0.851,-0.458 0.862,-0.447 0.862,-0.434L0.862,-0.356C0.862,-0.328 0.853,-0.309 0.839,-0.296C0.838,-0.295 0.837,-0.294 0.836,-0.294L0.882,-0.294C0.895,-0.294 0.906,-0.283 0.906,-0.27L0.906,-0.177C0.906,-0.147 0.897,-0.126 0.882,-0.113C0.868,-0.1 0.847,-0.092 0.818,-0.092L0.301,-0.092L0.301,-0.013L0.833,-0.013C0.846,-0.013 0.857,-0.002 0.857,0.011L0.857,0.103C0.857,0.131 0.848,0.152 0.831,0.167C0.815,0.182 0.794,0.19 0.766,0.19L0.139,0.19C0.111,0.19 0.09,0.182 0.074,0.167C0.058,0.152 0.049,0.131 0.049,0.103L0.049,-0.098C0.039,-0.102 0.031,-0.107 0.024,-0.113C0.009,-0.126 0,-0.147 0,-0.177L0,-0.27C0,-0.283 0.011,-0.294 0.024,-0.294L0.075,-0.294ZM0.097,-0.071L0.097,0.103C0.097,0.115 0.1,0.125 0.107,0.132C0.114,0.139 0.125,0.142 0.139,0.142L0.766,0.142C0.78,0.142 0.791,0.139 0.799,0.132C0.806,0.125 0.809,0.115 0.809,0.103L0.809,0.035L0.277,0.035C0.264,0.035 0.253,0.024 0.253,0.011L0.253,-0.071L0.097,-0.071ZM0.048,-0.246L0.048,-0.177C0.048,-0.164 0.049,-0.154 0.056,-0.148C0.063,-0.142 0.074,-0.14 0.088,-0.14L0.818,-0.14C0.832,-0.14 0.843,-0.142 0.85,-0.148C0.857,-0.154 0.858,-0.164 0.858,-0.177L0.858,-0.246L0.048,-0.246ZM0.097,-0.731L0.097,-0.356C0.097,-0.345 0.098,-0.336 0.104,-0.331C0.11,-0.325 0.12,-0.324 0.132,-0.324L0.779,-0.324C0.791,-0.324 0.801,-0.325 0.807,-0.331C0.813,-0.336 0.814,-0.345 0.814,-0.356L0.814,-0.41L0.275,-0.41C0.262,-0.41 0.251,-0.421 0.251,-0.434L0.251,-0.466C0.251,-0.479 0.262,-0.49 0.275,-0.49L0.774,-0.49C0.786,-0.49 0.796,-0.491 0.802,-0.497C0.808,-0.502 0.809,-0.511 0.809,-0.522L0.809,-0.566L0.275,-0.566C0.262,-0.566 0.251,-0.577 0.251,-0.59L0.251,-0.622C0.251,-0.635 0.262,-0.646 0.275,-0.646L0.774,-0.646C0.786,-0.646 0.796,-0.647 0.802,-0.653C0.808,-0.658 0.809,-0.667 0.809,-0.678L0.809,-0.731L0.097,-0.731Z" style="fill:white;"/>
                <path d="M0.075,-0.294C0.074,-0.294 0.073,-0.295 0.072,-0.296C0.058,-0.309 0.049,-0.328 0.049,-0.356L0.049,-0.755C0.049,-0.768 0.06,-0.779 0.073,-0.779L0.833,-0.779C0.846,-0.779 0.857,-0.768 0.857,-0.755L0.857,-0.678C0.857,-0.65 0.848,-0.631 0.834,-0.618C0.832,-0.616 0.831,-0.615 0.829,-0.614L0.833,-0.614C0.846,-0.614 0.857,-0.603 0.857,-0.59L0.857,-0.522C0.857,-0.494 0.848,-0.475 0.834,-0.462C0.832,-0.46 0.831,-0.459 0.829,-0.458L0.838,-0.458C0.851,-0.458 0.862,-0.447 0.862,-0.434L0.862,-0.356C0.862,-0.328 0.853,-0.309 0.839,-0.296C0.838,-0.295 0.837,-0.294 0.836,-0.294L0.882,-0.294C0.895,-0.294 0.906,-0.283 0.906,-0.27L0.906,-0.177C0.906,-0.147 0.897,-0.126 0.882,-0.113C0.868,-0.1 0.847,-0.092 0.818,-0.092L0.301,-0.092L0.301,-0.013L0.833,-0.013C0.846,-0.013 0.857,-0.002 0.857,0.011L0.857,0.103C0.857,0.131 0.848,0.152 0.831,0.167C0.815,0.182 0.794,0.19 0.766,0.19L0.139,0.19C0.111,0.19 0.09,0.182 0.074,0.167C0.058,0.152 0.049,0.131 0.049,0.103L0.049,-0.098C0.039,-0.102 0.031,-0.107 0.024,-0.113C0.009,-0.126 0,-0.147 0,-0.177L0,-0.27C0,-0.283 0.011,-0.294 0.024,-0.294L0.075,-0.294ZM0.075,-0.272C0.084,-0.272 0.092,-0.278 0.095,-0.286C0.098,-0.295 0.096,-0.305 0.088,-0.311L0.087,-0.312C0.077,-0.321 0.071,-0.336 0.071,-0.356L0.071,-0.755C0.071,-0.756 0.072,-0.757 0.073,-0.757L0.833,-0.757C0.834,-0.757 0.835,-0.756 0.835,-0.755L0.835,-0.678C0.835,-0.658 0.829,-0.643 0.819,-0.634C0.818,-0.633 0.817,-0.632 0.816,-0.631C0.808,-0.626 0.805,-0.616 0.808,-0.607C0.811,-0.598 0.819,-0.592 0.829,-0.592L0.833,-0.592C0.834,-0.592 0.835,-0.591 0.835,-0.59L0.835,-0.522C0.835,-0.502 0.829,-0.487 0.819,-0.478C0.818,-0.477 0.817,-0.476 0.816,-0.475C0.808,-0.47 0.805,-0.46 0.808,-0.451C0.811,-0.442 0.819,-0.436 0.829,-0.436L0.838,-0.436C0.839,-0.436 0.84,-0.435 0.84,-0.434L0.84,-0.356C0.84,-0.336 0.834,-0.321 0.824,-0.312L0.823,-0.311C0.815,-0.305 0.813,-0.295 0.816,-0.286C0.819,-0.278 0.827,-0.272 0.836,-0.272L0.882,-0.272C0.883,-0.272 0.884,-0.271 0.884,-0.27L0.884,-0.177C0.884,-0.155 0.878,-0.139 0.867,-0.129C0.856,-0.119 0.84,-0.114 0.818,-0.114L0.301,-0.114C0.289,-0.114 0.279,-0.104 0.279,-0.092L0.279,-0.013C0.279,-0.001 0.289,0.009 0.301,0.009L0.833,0.009C0.834,0.009 0.835,0.01 0.835,0.011L0.835,0.103C0.835,0.124 0.829,0.139 0.816,0.151C0.804,0.162 0.787,0.168 0.766,0.168L0.139,0.168C0.118,0.168 0.101,0.162 0.089,0.151C0.077,0.139 0.071,0.124 0.071,0.103L0.071,-0.095C0.073,-0.105 0.067,-0.115 0.057,-0.119C0.05,-0.121 0.044,-0.125 0.039,-0.129C0.028,-0.139 0.022,-0.155 0.022,-0.177L0.022,-0.27C0.022,-0.271 0.023,-0.272 0.024,-0.272L0.075,-0.272ZM0.097,-0.093C0.085,-0.093 0.075,-0.083 0.075,-0.071L0.075,0.103C0.075,0.122 0.08,0.138 0.092,0.148C0.103,0.159 0.119,0.164 0.139,0.164L0.766,0.164C0.786,0.164 0.802,0.159 0.814,0.148C0.825,0.138 0.831,0.122 0.831,0.103L0.831,0.035C0.831,0.023 0.821,0.013 0.809,0.013L0.277,0.013C0.276,0.013 0.275,0.012 0.275,0.011L0.275,-0.071C0.275,-0.083 0.265,-0.093 0.253,-0.093L0.097,-0.093ZM0.097,-0.071L0.097,0.103C0.097,0.115 0.1,0.125 0.107,0.132C0.114,0.139 0.125,0.142 0.139,0.142L0.766,0.142C0.78,0.142 0.791,0.139 0.799,0.132C0.806,0.125 0.809,0.115 0.809,0.103L0.809,0.035L0.277,0.035C0.264,0.035 0.253,0.024 0.253,0.011L0.253,-0.071L0.097,-0.071ZM0.048,-0.268C0.036,-0.268 0.026,-0.258 0.026,-0.246L0.026,-0.177C0.026,-0.156 0.031,-0.141 0.041,-0.132C0.052,-0.122 0.067,-0.118 0.088,-0.118L0.818,-0.118C0.839,-0.118 0.854,-0.122 0.865,-0.132C0.875,-0.141 0.88,-0.156 0.88,-0.177L0.88,-0.246C0.88,-0.258 0.87,-0.268 0.858,-0.268L0.048,-0.268ZM0.048,-0.246L0.048,-0.177C0.048,-0.164 0.049,-0.154 0.056,-0.148C0.063,-0.142 0.074,-0.14 0.088,-0.14L0.818,-0.14C0.832,-0.14 0.843,-0.142 0.85,-0.148C0.857,-0.154 0.858,-0.164 0.858,-0.177L0.858,-0.246L0.048,-0.246ZM0.097,-0.753C0.085,-0.753 0.075,-0.743 0.075,-0.731L0.075,-0.356C0.075,-0.337 0.079,-0.324 0.089,-0.315C0.099,-0.306 0.113,-0.302 0.132,-0.302L0.779,-0.302C0.798,-0.302 0.812,-0.306 0.822,-0.315C0.832,-0.324 0.836,-0.337 0.836,-0.356L0.836,-0.41C0.836,-0.422 0.826,-0.432 0.814,-0.432L0.275,-0.432C0.274,-0.432 0.273,-0.433 0.273,-0.434L0.273,-0.466C0.273,-0.467 0.274,-0.468 0.275,-0.468L0.774,-0.468C0.793,-0.468 0.807,-0.472 0.817,-0.481C0.827,-0.49 0.831,-0.503 0.831,-0.522L0.831,-0.566C0.831,-0.578 0.821,-0.588 0.809,-0.588L0.275,-0.588C0.274,-0.588 0.273,-0.589 0.273,-0.59L0.273,-0.622C0.273,-0.623 0.274,-0.624 0.275,-0.624L0.774,-0.624C0.793,-0.624 0.807,-0.628 0.817,-0.637C0.827,-0.646 0.831,-0.659 0.831,-0.678L0.831,-0.731C0.831,-0.743 0.821,-0.753 0.809,-0.753L0.097,-0.753ZM0.097,-0.731L0.097,-0.356C0.097,-0.345 0.098,-0.336 0.104,-0.331C0.11,-0.325 0.12,-0.324 0.132,-0.324L0.779,-0.324C0.791,-0.324 0.801,-0.325 0.807,-0.331C0.813,-0.336 0.814,-0.345 0.814,-0.356L0.814,-0.41L0.275,-0.41C0.262,-0.41 0.251,-0.421 0.251,-0.434L0.251,-0.466C0.251,-0.479 0.262,-0.49 0.275,-0.49L0.774,-0.49C0.786,-0.49 0.796,-0.491 0.802,-0.497C0.808,-0.502 0.809,-0.511 0.809,-0.522L0.809,-0.566L0.275,-0.566C0.262,-0.566 0.251,-0.577 0.251,-0.59L0.251,-0.622C0.251,-0.635 0.262,-0.646 0.275,-0.646L0.774,-0.646C0.786,-0.646 0.796,-0.647 0.802,-0.653C0.808,-0.658 0.809,-0.667 0.809,-0.678L0.809,-0.731L0.097,-0.731Z" style="fill:white;"/>
            </g>
            <g transform="matrix(106.426,0,0,106.426,294.391,617.488)">
                <path d="M0.584,-0.017L0.584,0.005C0.584,0.057 0.568,0.099 0.538,0.131C0.507,0.164 0.465,0.181 0.413,0.181L0.224,0.181C0.172,0.181 0.13,0.164 0.099,0.131C0.069,0.099 0.053,0.057 0.053,0.005L0.053,-0.599C0.053,-0.652 0.069,-0.694 0.099,-0.726C0.13,-0.758 0.172,-0.775 0.224,-0.775L0.413,-0.775C0.465,-0.775 0.507,-0.758 0.538,-0.726C0.568,-0.694 0.584,-0.652 0.584,-0.599L0.584,-0.591L0.61,-0.591L0.61,-0.753C0.61,-0.763 0.619,-0.772 0.629,-0.772L0.831,-0.772C0.841,-0.772 0.85,-0.763 0.85,-0.753L0.85,0.036C0.85,0.078 0.835,0.113 0.807,0.142C0.778,0.17 0.743,0.185 0.701,0.185L0.629,0.185C0.619,0.185 0.61,0.176 0.61,0.166L0.61,-0.017L0.584,-0.017ZM0.648,-0.734L0.648,-0.572C0.648,-0.562 0.639,-0.553 0.629,-0.553L0.565,-0.553C0.555,-0.553 0.546,-0.562 0.546,-0.572L0.546,-0.599C0.546,-0.641 0.535,-0.675 0.51,-0.7C0.486,-0.725 0.454,-0.737 0.413,-0.737L0.224,-0.737C0.183,-0.737 0.151,-0.725 0.127,-0.7C0.102,-0.675 0.091,-0.641 0.091,-0.599L0.091,0.005C0.091,0.046 0.102,0.08 0.127,0.106C0.151,0.131 0.183,0.143 0.224,0.143L0.413,0.143C0.454,0.143 0.486,0.131 0.51,0.106C0.535,0.08 0.546,0.046 0.546,0.005L0.546,-0.038C0.546,-0.044 0.549,-0.049 0.553,-0.053C0.558,-0.056 0.564,-0.058 0.569,-0.056C0.574,-0.055 0.579,-0.055 0.584,-0.055L0.629,-0.055C0.639,-0.055 0.648,-0.046 0.648,-0.036L0.648,0.147L0.701,0.147C0.732,0.147 0.759,0.137 0.78,0.115C0.802,0.094 0.812,0.067 0.812,0.036L0.812,-0.734L0.648,-0.734ZM0.256,-0.044C0.256,-0.016 0.263,0.002 0.272,0.01C0.282,0.02 0.295,0.025 0.311,0.025L0.326,0.025C0.342,0.025 0.355,0.02 0.365,0.01C0.374,0.002 0.381,-0.016 0.381,-0.044L0.381,-0.55C0.381,-0.579 0.374,-0.597 0.365,-0.605C0.355,-0.614 0.342,-0.619 0.326,-0.619L0.311,-0.619C0.295,-0.619 0.282,-0.614 0.272,-0.605C0.263,-0.597 0.256,-0.579 0.256,-0.55L0.256,-0.044ZM0.294,-0.044L0.294,-0.55C0.294,-0.559 0.294,-0.566 0.296,-0.572C0.296,-0.574 0.296,-0.576 0.298,-0.577C0.301,-0.58 0.306,-0.581 0.311,-0.581L0.326,-0.581C0.331,-0.581 0.336,-0.58 0.339,-0.577C0.341,-0.576 0.341,-0.574 0.341,-0.572C0.343,-0.566 0.343,-0.559 0.343,-0.55L0.343,-0.044C0.343,-0.035 0.343,-0.028 0.341,-0.023C0.341,-0.02 0.34,-0.018 0.339,-0.017C0.336,-0.014 0.331,-0.013 0.326,-0.013L0.311,-0.013C0.306,-0.013 0.301,-0.014 0.298,-0.017C0.297,-0.018 0.296,-0.02 0.296,-0.023C0.294,-0.028 0.294,-0.035 0.294,-0.044ZM0.584,-0.434C0.579,-0.434 0.574,-0.434 0.569,-0.435C0.564,-0.437 0.558,-0.435 0.553,-0.432C0.549,-0.428 0.546,-0.423 0.546,-0.417L0.546,-0.19C0.546,-0.18 0.555,-0.171 0.565,-0.171L0.629,-0.171C0.639,-0.171 0.648,-0.18 0.648,-0.19L0.648,-0.415C0.648,-0.425 0.639,-0.434 0.629,-0.434L0.584,-0.434ZM0.584,-0.396L0.584,-0.209L0.61,-0.209L0.61,-0.396L0.584,-0.396Z" style="fill:white;"/>
                <path d="M0.584,-0.017L0.584,0.005C0.584,0.057 0.568,0.099 0.538,0.131C0.507,0.164 0.465,0.181 0.413,0.181L0.224,0.181C0.172,0.181 0.13,0.164 0.099,0.131C0.069,0.099 0.053,0.057 0.053,0.005L0.053,-0.599C0.053,-0.652 0.069,-0.694 0.099,-0.726C0.13,-0.758 0.172,-0.775 0.224,-0.775L0.413,-0.775C0.465,-0.775 0.507,-0.758 0.538,-0.726C0.568,-0.694 0.584,-0.652 0.584,-0.599L0.584,-0.591L0.61,-0.591L0.61,-0.753C0.61,-0.763 0.619,-0.772 0.629,-0.772L0.831,-0.772C0.841,-0.772 0.85,-0.763 0.85,-0.753L0.85,0.036C0.85,0.078 0.835,0.113 0.807,0.142C0.778,0.17 0.743,0.185 0.701,0.185L0.629,0.185C0.619,0.185 0.61,0.176 0.61,0.166L0.61,-0.017L0.584,-0.017ZM0.584,-0.035C0.579,-0.035 0.575,-0.033 0.572,-0.03C0.568,-0.026 0.566,-0.022 0.566,-0.017L0.566,0.005C0.566,0.052 0.553,0.09 0.525,0.119C0.497,0.149 0.46,0.163 0.413,0.163L0.224,0.163C0.177,0.163 0.14,0.149 0.112,0.119C0.084,0.09 0.071,0.052 0.071,0.005L0.071,-0.599C0.071,-0.647 0.084,-0.685 0.112,-0.714C0.14,-0.743 0.177,-0.757 0.224,-0.757L0.413,-0.757C0.46,-0.757 0.497,-0.743 0.525,-0.714C0.553,-0.685 0.566,-0.647 0.566,-0.599L0.566,-0.591C0.566,-0.581 0.574,-0.573 0.584,-0.573L0.61,-0.573C0.62,-0.573 0.628,-0.581 0.628,-0.591L0.628,-0.753C0.628,-0.754 0.628,-0.754 0.629,-0.754L0.831,-0.754C0.832,-0.754 0.832,-0.754 0.832,-0.753L0.832,0.036C0.832,0.073 0.82,0.104 0.794,0.129C0.769,0.155 0.738,0.167 0.701,0.167L0.629,0.167C0.628,0.167 0.628,0.167 0.628,0.166L0.628,-0.017C0.628,-0.027 0.62,-0.035 0.61,-0.035L0.584,-0.035ZM0.648,-0.752C0.638,-0.752 0.63,-0.744 0.63,-0.734L0.63,-0.572C0.63,-0.571 0.63,-0.571 0.629,-0.571L0.565,-0.571C0.564,-0.571 0.564,-0.571 0.564,-0.572L0.564,-0.599C0.564,-0.646 0.55,-0.684 0.523,-0.712C0.496,-0.74 0.459,-0.755 0.413,-0.755L0.224,-0.755C0.178,-0.755 0.141,-0.74 0.114,-0.712C0.087,-0.684 0.073,-0.646 0.073,-0.599L0.073,0.005C0.073,0.051 0.087,0.089 0.114,0.118C0.141,0.146 0.178,0.161 0.224,0.161L0.413,0.161C0.459,0.161 0.496,0.146 0.523,0.118C0.55,0.089 0.564,0.051 0.564,0.005L0.564,-0.039L0.565,-0.039C0.571,-0.038 0.577,-0.037 0.584,-0.037L0.629,-0.037C0.63,-0.037 0.63,-0.037 0.63,-0.036L0.63,0.147C0.63,0.157 0.638,0.165 0.648,0.165L0.701,0.165C0.737,0.165 0.768,0.152 0.793,0.128C0.817,0.103 0.83,0.072 0.83,0.036L0.83,-0.734C0.83,-0.744 0.822,-0.752 0.812,-0.752L0.648,-0.752ZM0.648,-0.734L0.648,-0.572C0.648,-0.562 0.639,-0.553 0.629,-0.553L0.565,-0.553C0.555,-0.553 0.546,-0.562 0.546,-0.572L0.546,-0.599C0.546,-0.641 0.535,-0.675 0.51,-0.7C0.486,-0.725 0.454,-0.737 0.413,-0.737L0.224,-0.737C0.183,-0.737 0.151,-0.725 0.127,-0.7C0.102,-0.675 0.091,-0.641 0.091,-0.599L0.091,0.005C0.091,0.046 0.102,0.08 0.127,0.106C0.151,0.131 0.183,0.143 0.224,0.143L0.413,0.143C0.454,0.143 0.486,0.131 0.51,0.106C0.535,0.08 0.546,0.046 0.546,0.005L0.546,-0.038C0.546,-0.044 0.549,-0.049 0.553,-0.053C0.558,-0.056 0.564,-0.058 0.569,-0.056C0.574,-0.055 0.579,-0.055 0.584,-0.055L0.629,-0.055C0.639,-0.055 0.648,-0.046 0.648,-0.036L0.648,0.147L0.701,0.147C0.732,0.147 0.759,0.137 0.78,0.115C0.802,0.094 0.812,0.067 0.812,0.036L0.812,-0.734L0.648,-0.734ZM0.256,-0.044C0.256,-0.016 0.263,0.002 0.272,0.01C0.282,0.02 0.295,0.025 0.311,0.025L0.326,0.025C0.342,0.025 0.355,0.02 0.365,0.01C0.374,0.002 0.381,-0.016 0.381,-0.044L0.381,-0.55C0.381,-0.579 0.374,-0.597 0.365,-0.605C0.355,-0.614 0.342,-0.619 0.326,-0.619L0.311,-0.619C0.295,-0.619 0.282,-0.614 0.272,-0.605C0.263,-0.597 0.256,-0.579 0.256,-0.55L0.256,-0.044ZM0.274,-0.044L0.274,-0.55C0.274,-0.572 0.277,-0.586 0.284,-0.592C0.291,-0.598 0.3,-0.601 0.311,-0.601L0.326,-0.601C0.337,-0.601 0.346,-0.598 0.353,-0.592C0.36,-0.586 0.363,-0.572 0.363,-0.55L0.363,-0.044C0.363,-0.023 0.36,-0.009 0.353,-0.003C0.346,0.004 0.337,0.007 0.326,0.007L0.311,0.007C0.3,0.007 0.291,0.004 0.284,-0.003C0.277,-0.009 0.274,-0.023 0.274,-0.044ZM0.276,-0.044C0.276,-0.034 0.277,-0.025 0.279,-0.019C0.28,-0.012 0.283,-0.008 0.286,-0.004C0.292,0.002 0.301,0.005 0.311,0.005L0.326,0.005C0.336,0.005 0.345,0.002 0.351,-0.004C0.354,-0.008 0.357,-0.012 0.358,-0.019C0.36,-0.025 0.361,-0.034 0.361,-0.044L0.361,-0.55C0.361,-0.561 0.36,-0.569 0.358,-0.576C0.357,-0.582 0.354,-0.587 0.351,-0.59C0.345,-0.596 0.336,-0.599 0.326,-0.599L0.311,-0.599C0.301,-0.599 0.292,-0.596 0.286,-0.59C0.283,-0.587 0.28,-0.582 0.279,-0.576C0.277,-0.569 0.276,-0.561 0.276,-0.55L0.276,-0.044ZM0.294,-0.044L0.294,-0.55C0.294,-0.559 0.294,-0.566 0.296,-0.572C0.296,-0.574 0.296,-0.576 0.298,-0.577C0.301,-0.58 0.306,-0.581 0.311,-0.581L0.326,-0.581C0.331,-0.581 0.336,-0.58 0.339,-0.577C0.341,-0.576 0.341,-0.574 0.341,-0.572C0.343,-0.566 0.343,-0.559 0.343,-0.55L0.343,-0.044C0.343,-0.035 0.343,-0.028 0.341,-0.023C0.341,-0.02 0.34,-0.018 0.339,-0.017C0.336,-0.014 0.331,-0.013 0.326,-0.013L0.311,-0.013C0.306,-0.013 0.301,-0.014 0.298,-0.017C0.297,-0.018 0.296,-0.02 0.296,-0.023C0.294,-0.028 0.294,-0.035 0.294,-0.044ZM0.584,-0.434C0.579,-0.434 0.574,-0.434 0.569,-0.435C0.564,-0.437 0.558,-0.435 0.553,-0.432C0.549,-0.428 0.546,-0.423 0.546,-0.417L0.546,-0.19C0.546,-0.18 0.555,-0.171 0.565,-0.171L0.629,-0.171C0.639,-0.171 0.648,-0.18 0.648,-0.19L0.648,-0.415C0.648,-0.425 0.639,-0.434 0.629,-0.434L0.584,-0.434ZM0.584,-0.416L0.629,-0.416C0.63,-0.416 0.63,-0.416 0.63,-0.415L0.63,-0.19C0.63,-0.189 0.63,-0.189 0.629,-0.189L0.565,-0.189C0.564,-0.189 0.564,-0.189 0.564,-0.19L0.564,-0.418L0.565,-0.418C0.571,-0.417 0.577,-0.416 0.584,-0.416ZM0.584,-0.414C0.579,-0.414 0.575,-0.412 0.572,-0.409C0.568,-0.405 0.566,-0.401 0.566,-0.396L0.566,-0.209C0.566,-0.199 0.574,-0.191 0.584,-0.191L0.61,-0.191C0.62,-0.191 0.628,-0.199 0.628,-0.209L0.628,-0.396C0.628,-0.406 0.62,-0.414 0.61,-0.414L0.584,-0.414ZM0.584,-0.396L0.584,-0.209L0.61,-0.209L0.61,-0.396L0.584,-0.396Z" style="fill:white;"/>
            </g>
            <g transform="matrix(106.426,0,0,106.426,390.813,617.488)">
                <path d="M0.073,-0.629C0.072,-0.629 0.071,-0.63 0.07,-0.631C0.058,-0.642 0.05,-0.66 0.05,-0.686L0.05,-0.754C0.05,-0.764 0.059,-0.773 0.069,-0.773L0.832,-0.773C0.842,-0.773 0.851,-0.764 0.851,-0.754L0.851,-0.551C0.851,-0.525 0.843,-0.507 0.831,-0.496C0.83,-0.495 0.828,-0.494 0.827,-0.493L0.84,-0.493C0.85,-0.493 0.859,-0.484 0.859,-0.474L0.859,-0.407C0.859,-0.381 0.851,-0.363 0.838,-0.351C0.834,-0.348 0.831,-0.345 0.827,-0.343L0.882,-0.343C0.892,-0.343 0.901,-0.334 0.901,-0.324L0.901,-0.244C0.901,-0.216 0.893,-0.196 0.879,-0.184C0.87,-0.176 0.86,-0.171 0.847,-0.167C0.851,-0.164 0.853,-0.159 0.853,-0.154L0.853,0.103C0.853,0.129 0.845,0.149 0.83,0.163C0.816,0.177 0.795,0.185 0.769,0.185L0.137,0.185C0.111,0.185 0.09,0.177 0.076,0.163C0.061,0.149 0.053,0.129 0.053,0.103L0.053,-0.154C0.053,-0.159 0.055,-0.164 0.059,-0.167C0.046,-0.171 0.036,-0.176 0.027,-0.184C0.013,-0.196 0.005,-0.216 0.005,-0.244L0.005,-0.324C0.005,-0.334 0.014,-0.343 0.024,-0.343L0.087,-0.343C0.083,-0.345 0.08,-0.348 0.076,-0.351C0.063,-0.363 0.055,-0.381 0.055,-0.407L0.055,-0.61C0.055,-0.62 0.063,-0.628 0.073,-0.629ZM0.815,-0.135L0.091,-0.135L0.091,0.103C0.091,0.117 0.094,0.128 0.102,0.136C0.11,0.144 0.122,0.147 0.137,0.147L0.769,0.147C0.784,0.147 0.796,0.144 0.804,0.136C0.812,0.128 0.815,0.117 0.815,0.103L0.815,-0.135ZM0.631,0.041C0.641,0.041 0.65,0.032 0.65,0.022L0.65,-0.007C0.65,-0.017 0.641,-0.026 0.631,-0.026L0.274,-0.026C0.264,-0.026 0.255,-0.017 0.255,-0.007L0.255,0.022C0.255,0.032 0.264,0.041 0.274,0.041L0.631,0.041ZM0.863,-0.305L0.043,-0.305L0.043,-0.244C0.043,-0.229 0.045,-0.218 0.053,-0.211C0.06,-0.204 0.072,-0.202 0.088,-0.202L0.818,-0.202C0.834,-0.202 0.846,-0.204 0.853,-0.211C0.861,-0.218 0.863,-0.229 0.863,-0.244L0.863,-0.305ZM0.813,-0.735L0.088,-0.735L0.088,-0.686C0.088,-0.674 0.089,-0.664 0.095,-0.659C0.101,-0.653 0.111,-0.652 0.125,-0.652L0.629,-0.652C0.639,-0.652 0.648,-0.643 0.648,-0.633L0.648,-0.61C0.648,-0.6 0.639,-0.591 0.629,-0.591L0.093,-0.591L0.093,-0.407C0.093,-0.394 0.095,-0.384 0.102,-0.378C0.109,-0.372 0.119,-0.37 0.133,-0.37L0.781,-0.37C0.795,-0.37 0.805,-0.372 0.812,-0.378C0.819,-0.384 0.821,-0.394 0.821,-0.407L0.821,-0.455L0.276,-0.455C0.266,-0.455 0.257,-0.464 0.257,-0.474L0.257,-0.498C0.257,-0.508 0.266,-0.517 0.276,-0.517L0.776,-0.517C0.79,-0.517 0.8,-0.518 0.806,-0.524C0.812,-0.529 0.813,-0.539 0.813,-0.551L0.813,-0.735Z" style="fill:white;"/>
                <path d="M0.073,-0.629C0.072,-0.629 0.071,-0.63 0.07,-0.631C0.058,-0.642 0.05,-0.66 0.05,-0.686L0.05,-0.754C0.05,-0.764 0.059,-0.773 0.069,-0.773L0.832,-0.773C0.842,-0.773 0.851,-0.764 0.851,-0.754L0.851,-0.551C0.851,-0.525 0.843,-0.507 0.831,-0.496C0.83,-0.495 0.828,-0.494 0.827,-0.493L0.84,-0.493C0.85,-0.493 0.859,-0.484 0.859,-0.474L0.859,-0.407C0.859,-0.381 0.851,-0.363 0.838,-0.351C0.834,-0.348 0.831,-0.345 0.827,-0.343L0.882,-0.343C0.892,-0.343 0.901,-0.334 0.901,-0.324L0.901,-0.244C0.901,-0.216 0.893,-0.196 0.879,-0.184C0.87,-0.176 0.86,-0.171 0.847,-0.167C0.851,-0.164 0.853,-0.159 0.853,-0.154L0.853,0.103C0.853,0.129 0.845,0.149 0.83,0.163C0.816,0.177 0.795,0.185 0.769,0.185L0.137,0.185C0.111,0.185 0.09,0.177 0.076,0.163C0.061,0.149 0.053,0.129 0.053,0.103L0.053,-0.154C0.053,-0.159 0.055,-0.164 0.059,-0.167C0.046,-0.171 0.036,-0.176 0.027,-0.184C0.013,-0.196 0.005,-0.216 0.005,-0.244L0.005,-0.324C0.005,-0.334 0.014,-0.343 0.024,-0.343L0.087,-0.343C0.083,-0.345 0.08,-0.348 0.076,-0.351C0.063,-0.363 0.055,-0.381 0.055,-0.407L0.055,-0.61C0.055,-0.62 0.063,-0.628 0.073,-0.629ZM0.074,-0.611C0.081,-0.612 0.087,-0.617 0.089,-0.624C0.091,-0.631 0.089,-0.638 0.083,-0.643C0.083,-0.643 0.082,-0.643 0.082,-0.644C0.072,-0.652 0.068,-0.666 0.068,-0.686L0.068,-0.754C0.068,-0.755 0.068,-0.755 0.069,-0.755L0.832,-0.755C0.833,-0.755 0.833,-0.755 0.833,-0.754L0.833,-0.551C0.833,-0.531 0.829,-0.517 0.819,-0.509C0.819,-0.508 0.818,-0.508 0.817,-0.507C0.811,-0.502 0.808,-0.495 0.81,-0.487C0.813,-0.48 0.819,-0.475 0.827,-0.475L0.84,-0.475C0.841,-0.475 0.841,-0.475 0.841,-0.474L0.841,-0.407C0.841,-0.387 0.836,-0.373 0.826,-0.363C0.824,-0.361 0.821,-0.36 0.818,-0.358C0.811,-0.354 0.808,-0.346 0.81,-0.338C0.812,-0.331 0.819,-0.325 0.827,-0.325L0.882,-0.325C0.883,-0.325 0.883,-0.325 0.883,-0.324L0.883,-0.244C0.883,-0.222 0.878,-0.206 0.867,-0.196C0.861,-0.191 0.853,-0.187 0.843,-0.184C0.837,-0.183 0.832,-0.178 0.83,-0.172C0.829,-0.166 0.83,-0.159 0.835,-0.155L0.835,0.103C0.835,0.123 0.83,0.139 0.818,0.15C0.806,0.162 0.79,0.167 0.769,0.167L0.137,0.167C0.116,0.167 0.1,0.162 0.088,0.15C0.076,0.139 0.071,0.123 0.071,0.103L0.071,-0.155C0.076,-0.159 0.077,-0.166 0.076,-0.172C0.074,-0.178 0.069,-0.183 0.063,-0.184C0.053,-0.187 0.045,-0.191 0.039,-0.196C0.028,-0.206 0.023,-0.222 0.023,-0.244L0.023,-0.324C0.023,-0.325 0.023,-0.325 0.024,-0.325L0.087,-0.325C0.095,-0.325 0.102,-0.331 0.104,-0.338C0.106,-0.346 0.103,-0.354 0.096,-0.358C0.093,-0.36 0.09,-0.361 0.088,-0.363C0.078,-0.373 0.073,-0.387 0.073,-0.407L0.073,-0.61C0.073,-0.611 0.073,-0.611 0.074,-0.611ZM0.833,-0.135C0.833,-0.145 0.825,-0.153 0.815,-0.153L0.091,-0.153C0.081,-0.153 0.073,-0.145 0.073,-0.135L0.073,0.103C0.073,0.123 0.079,0.138 0.09,0.149C0.101,0.159 0.117,0.165 0.137,0.165L0.769,0.165C0.789,0.165 0.805,0.159 0.816,0.149C0.827,0.138 0.833,0.123 0.833,0.103L0.833,-0.135ZM0.815,-0.135L0.091,-0.135L0.091,0.103C0.091,0.117 0.094,0.128 0.102,0.136C0.11,0.144 0.122,0.147 0.137,0.147L0.769,0.147C0.784,0.147 0.796,0.144 0.804,0.136C0.812,0.128 0.815,0.117 0.815,0.103L0.815,-0.135ZM0.631,0.041C0.641,0.041 0.65,0.032 0.65,0.022L0.65,-0.007C0.65,-0.017 0.641,-0.026 0.631,-0.026L0.274,-0.026C0.264,-0.026 0.255,-0.017 0.255,-0.007L0.255,0.022C0.255,0.032 0.264,0.041 0.274,0.041L0.631,0.041ZM0.631,0.023L0.274,0.023C0.273,0.023 0.273,0.023 0.273,0.022L0.273,-0.007C0.273,-0.008 0.273,-0.008 0.274,-0.008L0.631,-0.008C0.632,-0.008 0.632,-0.008 0.632,-0.007L0.632,0.022C0.632,0.023 0.632,0.023 0.631,0.023ZM0.881,-0.305C0.881,-0.315 0.873,-0.323 0.863,-0.323L0.043,-0.323C0.033,-0.323 0.025,-0.315 0.025,-0.305L0.025,-0.244C0.025,-0.223 0.03,-0.208 0.041,-0.199C0.051,-0.189 0.067,-0.184 0.088,-0.184L0.818,-0.184C0.839,-0.184 0.855,-0.189 0.865,-0.199C0.876,-0.208 0.881,-0.223 0.881,-0.244L0.881,-0.305ZM0.863,-0.305L0.043,-0.305L0.043,-0.244C0.043,-0.229 0.045,-0.218 0.053,-0.211C0.06,-0.204 0.072,-0.202 0.088,-0.202L0.818,-0.202C0.834,-0.202 0.846,-0.204 0.853,-0.211C0.861,-0.218 0.863,-0.229 0.863,-0.244L0.863,-0.305ZM0.831,-0.735C0.831,-0.745 0.823,-0.753 0.813,-0.753L0.088,-0.753C0.078,-0.753 0.07,-0.745 0.07,-0.735L0.07,-0.686C0.07,-0.667 0.075,-0.654 0.083,-0.646C0.092,-0.638 0.106,-0.634 0.125,-0.634L0.629,-0.634C0.63,-0.634 0.63,-0.634 0.63,-0.633L0.63,-0.61C0.63,-0.609 0.63,-0.609 0.629,-0.609L0.093,-0.609C0.083,-0.609 0.075,-0.601 0.075,-0.591L0.075,-0.407C0.075,-0.388 0.08,-0.374 0.09,-0.366C0.1,-0.357 0.114,-0.352 0.133,-0.352L0.781,-0.352C0.8,-0.352 0.814,-0.357 0.824,-0.366C0.834,-0.374 0.839,-0.388 0.839,-0.407L0.839,-0.455C0.839,-0.465 0.831,-0.473 0.821,-0.473L0.276,-0.473C0.275,-0.473 0.275,-0.473 0.275,-0.474L0.275,-0.498C0.275,-0.499 0.275,-0.499 0.276,-0.499L0.776,-0.499C0.795,-0.499 0.809,-0.503 0.818,-0.511C0.826,-0.519 0.831,-0.532 0.831,-0.551L0.831,-0.735ZM0.813,-0.735L0.088,-0.735L0.088,-0.686C0.088,-0.674 0.089,-0.664 0.095,-0.659C0.101,-0.653 0.111,-0.652 0.125,-0.652L0.629,-0.652C0.639,-0.652 0.648,-0.643 0.648,-0.633L0.648,-0.61C0.648,-0.6 0.639,-0.591 0.629,-0.591L0.093,-0.591L0.093,-0.407C0.093,-0.394 0.095,-0.384 0.102,-0.378C0.109,-0.372 0.119,-0.37 0.133,-0.37L0.781,-0.37C0.795,-0.37 0.805,-0.372 0.812,-0.378C0.819,-0.384 0.821,-0.394 0.821,-0.407L0.821,-0.455L0.276,-0.455C0.266,-0.455 0.257,-0.464 0.257,-0.474L0.257,-0.498C0.257,-0.508 0.266,-0.517 0.276,-0.517L0.776,-0.517C0.79,-0.517 0.8,-0.518 0.806,-0.524C0.812,-0.529 0.813,-0.539 0.813,-0.551L0.813,-0.735Z" style="fill:white;"/>
            </g>
            <g transform="matrix(74.6454,0,0,74.6454,493.791,629.54)">
                <path d="M0.847,0.036L0.847,-0.753C0.847,-0.766 0.837,-0.776 0.824,-0.776L0.621,-0.776C0.608,-0.776 0.598,-0.766 0.598,-0.753L0.598,0.166C0.598,0.179 0.608,0.189 0.621,0.189L0.694,0.189C0.737,0.189 0.773,0.174 0.803,0.145C0.832,0.115 0.847,0.079 0.847,0.036ZM0.049,-0.599L0.049,0.005C0.049,0.058 0.065,0.101 0.096,0.134C0.128,0.168 0.17,0.185 0.224,0.185L0.413,0.185C0.467,0.185 0.509,0.168 0.541,0.134C0.572,0.101 0.588,0.058 0.588,0.005L0.588,-0.599C0.588,-0.653 0.572,-0.696 0.541,-0.729C0.509,-0.762 0.467,-0.779 0.413,-0.779L0.224,-0.779C0.17,-0.779 0.128,-0.762 0.096,-0.729C0.065,-0.696 0.049,-0.653 0.049,-0.599ZM0.801,-0.73L0.644,-0.73L0.644,0.143L0.694,0.143C0.724,0.143 0.75,0.133 0.77,0.112C0.791,0.092 0.801,0.066 0.801,0.036L0.801,-0.73ZM0.095,-0.599C0.095,-0.64 0.106,-0.673 0.13,-0.697C0.153,-0.722 0.184,-0.733 0.224,-0.733L0.413,-0.733C0.453,-0.733 0.484,-0.722 0.507,-0.697C0.531,-0.673 0.542,-0.64 0.542,-0.599L0.542,0.005C0.542,0.045 0.531,0.078 0.507,0.103C0.484,0.127 0.453,0.139 0.413,0.139L0.224,0.139C0.184,0.139 0.153,0.127 0.13,0.103C0.106,0.078 0.095,0.045 0.095,0.005L0.095,-0.599ZM0.252,-0.044C0.252,-0.014 0.26,0.004 0.269,0.013C0.28,0.023 0.294,0.029 0.311,0.029L0.326,0.029C0.343,0.029 0.357,0.023 0.368,0.013C0.377,0.004 0.385,-0.014 0.385,-0.044L0.385,-0.55C0.385,-0.581 0.377,-0.599 0.367,-0.608C0.357,-0.618 0.343,-0.623 0.326,-0.623L0.311,-0.623C0.294,-0.623 0.28,-0.618 0.27,-0.608C0.26,-0.599 0.252,-0.581 0.252,-0.55L0.252,-0.044ZM0.336,-0.575C0.333,-0.577 0.33,-0.577 0.326,-0.577L0.311,-0.577C0.307,-0.577 0.304,-0.577 0.301,-0.575C0.301,-0.574 0.3,-0.57 0.299,-0.568C0.298,-0.563 0.298,-0.557 0.298,-0.55L0.298,-0.044C0.298,-0.037 0.298,-0.032 0.299,-0.027C0.3,-0.024 0.301,-0.02 0.301,-0.02C0.304,-0.018 0.307,-0.017 0.311,-0.017L0.326,-0.017C0.33,-0.017 0.333,-0.018 0.336,-0.02C0.336,-0.02 0.337,-0.024 0.338,-0.027C0.339,-0.032 0.339,-0.037 0.339,-0.044L0.339,-0.55C0.339,-0.557 0.339,-0.563 0.338,-0.568C0.337,-0.57 0.336,-0.574 0.336,-0.575Z" style="fill:white;"/>
                <path d="M0.847,0.036L0.847,-0.753C0.847,-0.766 0.837,-0.776 0.824,-0.776L0.621,-0.776C0.608,-0.776 0.598,-0.766 0.598,-0.753L0.598,0.166C0.598,0.179 0.608,0.189 0.621,0.189L0.694,0.189C0.737,0.189 0.773,0.174 0.803,0.145C0.832,0.115 0.847,0.079 0.847,0.036ZM0.049,-0.599L0.049,0.005C0.049,0.058 0.065,0.101 0.096,0.134C0.128,0.168 0.17,0.185 0.224,0.185L0.413,0.185C0.467,0.185 0.509,0.168 0.541,0.134C0.572,0.101 0.588,0.058 0.588,0.005L0.588,-0.599C0.588,-0.653 0.572,-0.696 0.541,-0.729C0.509,-0.762 0.467,-0.779 0.413,-0.779L0.224,-0.779C0.17,-0.779 0.128,-0.762 0.096,-0.729C0.065,-0.696 0.049,-0.653 0.049,-0.599ZM0.623,0.157L0.623,0.164L0.63,0.164C0.627,0.162 0.625,0.16 0.623,0.157ZM0.801,-0.73L0.644,-0.73L0.644,0.143L0.694,0.143C0.724,0.143 0.75,0.133 0.77,0.112C0.791,0.092 0.801,0.066 0.801,0.036L0.801,-0.73ZM0.095,-0.599C0.095,-0.64 0.106,-0.673 0.13,-0.697C0.153,-0.722 0.184,-0.733 0.224,-0.733L0.413,-0.733C0.453,-0.733 0.484,-0.722 0.507,-0.697C0.531,-0.673 0.542,-0.64 0.542,-0.599L0.542,0.005C0.542,0.045 0.531,0.078 0.507,0.103C0.484,0.127 0.453,0.139 0.413,0.139L0.224,0.139C0.184,0.139 0.153,0.127 0.13,0.103C0.106,0.078 0.095,0.045 0.095,0.005L0.095,-0.599ZM0.252,-0.044C0.252,-0.014 0.26,0.004 0.269,0.013C0.28,0.023 0.294,0.029 0.311,0.029L0.326,0.029C0.343,0.029 0.357,0.023 0.368,0.013C0.377,0.004 0.385,-0.014 0.385,-0.044L0.385,-0.55C0.385,-0.581 0.377,-0.599 0.367,-0.608C0.357,-0.618 0.343,-0.623 0.326,-0.623L0.311,-0.623C0.294,-0.623 0.28,-0.618 0.27,-0.608C0.26,-0.599 0.252,-0.581 0.252,-0.55L0.252,-0.044ZM0.336,-0.575C0.333,-0.577 0.33,-0.577 0.326,-0.577L0.311,-0.577C0.307,-0.577 0.304,-0.577 0.301,-0.575C0.301,-0.574 0.3,-0.57 0.299,-0.568C0.298,-0.563 0.298,-0.557 0.298,-0.55L0.298,-0.044C0.298,-0.037 0.298,-0.032 0.299,-0.027C0.3,-0.024 0.301,-0.02 0.301,-0.02C0.304,-0.018 0.307,-0.017 0.311,-0.017L0.326,-0.017C0.33,-0.017 0.333,-0.018 0.336,-0.02C0.336,-0.02 0.337,-0.024 0.338,-0.027C0.339,-0.032 0.339,-0.037 0.339,-0.044L0.339,-0.55C0.339,-0.557 0.339,-0.563 0.338,-0.568C0.337,-0.57 0.336,-0.574 0.336,-0.575ZM0.63,-0.751L0.623,-0.751L0.623,-0.744C0.625,-0.747 0.627,-0.749 0.63,-0.751ZM0.822,-0.744L0.822,-0.751L0.815,-0.751C0.818,-0.749 0.82,-0.747 0.822,-0.744Z" style="fill:white;"/>
            </g>
            <g transform="matrix(74.6454,0,0,74.6454,561.42,629.54)">
                <path d="M0.218,-0.233L0.195,-0.233C0.141,-0.233 0.099,-0.25 0.067,-0.284C0.036,-0.317 0.02,-0.36 0.02,-0.413L0.02,-0.599C0.02,-0.653 0.036,-0.696 0.067,-0.729C0.099,-0.762 0.141,-0.779 0.195,-0.779L0.409,-0.779C0.463,-0.779 0.505,-0.762 0.537,-0.729C0.566,-0.698 0.582,-0.658 0.584,-0.609L0.602,-0.609L0.602,-0.753C0.602,-0.766 0.612,-0.776 0.625,-0.776L0.828,-0.776C0.841,-0.776 0.851,-0.766 0.851,-0.753L0.851,-0.316C0.851,-0.288 0.841,-0.266 0.822,-0.249C0.809,-0.238 0.792,-0.23 0.773,-0.227L0.773,-0.132C0.773,-0.101 0.782,-0.073 0.801,-0.049C0.82,-0.025 0.846,-0.01 0.879,-0.003C0.89,-0.001 0.898,0.008 0.898,0.019L0.898,0.172C0.898,0.185 0.888,0.195 0.875,0.195C0.823,0.195 0.775,0.183 0.729,0.159C0.695,0.141 0.668,0.123 0.648,0.103C0.631,0.12 0.611,0.136 0.587,0.152C0.554,0.173 0.526,0.187 0.503,0.193C0.499,0.194 0.496,0.194 0.492,0.193C0.467,0.187 0.438,0.174 0.404,0.153C0.379,0.137 0.358,0.121 0.34,0.103C0.32,0.123 0.293,0.141 0.259,0.159C0.213,0.183 0.165,0.195 0.113,0.195C0.1,0.195 0.09,0.185 0.09,0.172L0.09,0.019C0.09,0.008 0.098,-0.001 0.109,-0.003C0.142,-0.01 0.168,-0.025 0.187,-0.049C0.206,-0.073 0.215,-0.101 0.215,-0.132L0.215,-0.223C0.215,-0.227 0.216,-0.23 0.218,-0.233ZM0.417,-0.2L0.261,-0.2L0.261,-0.132C0.261,-0.09 0.248,-0.053 0.223,-0.02C0.201,0.008 0.172,0.027 0.136,0.037L0.136,0.148C0.172,0.145 0.205,0.135 0.237,0.119C0.276,0.099 0.304,0.078 0.322,0.055C0.326,0.049 0.333,0.046 0.34,0.046C0.347,0.046 0.353,0.049 0.358,0.054C0.376,0.076 0.399,0.096 0.428,0.114C0.454,0.131 0.477,0.142 0.496,0.147C0.515,0.141 0.537,0.13 0.562,0.113C0.59,0.095 0.613,0.076 0.63,0.054C0.635,0.049 0.641,0.046 0.648,0.046C0.655,0.046 0.662,0.049 0.666,0.055C0.684,0.078 0.712,0.099 0.751,0.119C0.783,0.135 0.816,0.145 0.852,0.148L0.852,0.037C0.816,0.027 0.787,0.008 0.765,-0.02C0.74,-0.053 0.727,-0.09 0.727,-0.132L0.727,-0.2L0.57,-0.2L0.57,-0.13C0.57,-0.1 0.564,-0.074 0.553,-0.049C0.54,-0.023 0.525,-0.005 0.506,0.007C0.499,0.011 0.489,0.011 0.482,0.007C0.463,-0.005 0.447,-0.023 0.435,-0.049C0.423,-0.073 0.417,-0.1 0.417,-0.13L0.417,-0.2ZM0.602,-0.409L0.584,-0.409C0.583,-0.358 0.567,-0.316 0.537,-0.284C0.515,-0.261 0.489,-0.246 0.457,-0.238C0.461,-0.234 0.463,-0.229 0.463,-0.223L0.463,-0.13C0.463,-0.108 0.467,-0.087 0.476,-0.069C0.481,-0.058 0.487,-0.049 0.494,-0.042C0.501,-0.049 0.506,-0.058 0.511,-0.069C0.52,-0.087 0.524,-0.108 0.524,-0.13L0.524,-0.223C0.524,-0.236 0.534,-0.246 0.547,-0.246L0.602,-0.246L0.602,-0.409ZM0.648,-0.73L0.648,-0.586C0.648,-0.573 0.638,-0.563 0.625,-0.563L0.561,-0.563C0.548,-0.563 0.538,-0.573 0.538,-0.586L0.538,-0.599C0.538,-0.64 0.527,-0.673 0.503,-0.697C0.48,-0.722 0.449,-0.733 0.409,-0.733L0.195,-0.733C0.155,-0.733 0.124,-0.722 0.101,-0.697C0.077,-0.673 0.066,-0.64 0.066,-0.599L0.066,-0.413C0.066,-0.373 0.077,-0.34 0.101,-0.315C0.124,-0.291 0.155,-0.279 0.195,-0.279L0.409,-0.279C0.449,-0.279 0.48,-0.291 0.503,-0.315C0.527,-0.34 0.538,-0.373 0.538,-0.413L0.538,-0.432C0.538,-0.445 0.548,-0.455 0.561,-0.455L0.625,-0.455C0.638,-0.455 0.648,-0.445 0.648,-0.432L0.648,-0.271L0.751,-0.271C0.768,-0.271 0.782,-0.275 0.792,-0.284C0.801,-0.292 0.805,-0.303 0.805,-0.316L0.805,-0.73L0.648,-0.73ZM0.223,-0.464C0.223,-0.434 0.231,-0.416 0.24,-0.407C0.251,-0.397 0.265,-0.391 0.282,-0.391L0.322,-0.391C0.339,-0.391 0.353,-0.397 0.364,-0.407C0.373,-0.416 0.381,-0.434 0.381,-0.464L0.381,-0.548C0.381,-0.579 0.373,-0.597 0.363,-0.606C0.353,-0.616 0.339,-0.621 0.322,-0.621L0.282,-0.621C0.265,-0.621 0.251,-0.616 0.241,-0.606C0.231,-0.597 0.223,-0.579 0.223,-0.548L0.223,-0.464ZM0.332,-0.573C0.329,-0.575 0.326,-0.575 0.322,-0.575L0.282,-0.575C0.278,-0.575 0.275,-0.575 0.272,-0.573C0.272,-0.572 0.271,-0.568 0.27,-0.566C0.269,-0.561 0.269,-0.555 0.269,-0.548L0.269,-0.464C0.269,-0.457 0.269,-0.452 0.27,-0.447C0.271,-0.444 0.272,-0.44 0.272,-0.44C0.275,-0.438 0.278,-0.437 0.282,-0.437L0.322,-0.437C0.326,-0.437 0.329,-0.438 0.332,-0.44C0.332,-0.44 0.333,-0.444 0.334,-0.447C0.335,-0.452 0.335,-0.457 0.335,-0.464L0.335,-0.548C0.335,-0.555 0.335,-0.561 0.334,-0.566C0.333,-0.568 0.332,-0.572 0.332,-0.573Z" style="fill:white;"/>
                <path d="M0.218,-0.233L0.195,-0.233C0.141,-0.233 0.099,-0.25 0.067,-0.284C0.036,-0.317 0.02,-0.36 0.02,-0.413L0.02,-0.599C0.02,-0.653 0.036,-0.696 0.067,-0.729C0.099,-0.762 0.141,-0.779 0.195,-0.779L0.409,-0.779C0.463,-0.779 0.505,-0.762 0.537,-0.729C0.566,-0.698 0.582,-0.658 0.584,-0.609L0.602,-0.609L0.602,-0.753C0.602,-0.766 0.612,-0.776 0.625,-0.776L0.828,-0.776C0.841,-0.776 0.851,-0.766 0.851,-0.753L0.851,-0.316C0.851,-0.288 0.841,-0.266 0.822,-0.249C0.809,-0.238 0.792,-0.23 0.773,-0.227L0.773,-0.132C0.773,-0.101 0.782,-0.073 0.801,-0.049C0.82,-0.025 0.846,-0.01 0.879,-0.003C0.89,-0.001 0.898,0.008 0.898,0.019L0.898,0.172C0.898,0.185 0.888,0.195 0.875,0.195C0.823,0.195 0.775,0.183 0.729,0.159C0.695,0.141 0.668,0.123 0.648,0.103C0.631,0.12 0.611,0.136 0.587,0.152C0.554,0.173 0.526,0.187 0.503,0.193C0.499,0.194 0.496,0.194 0.492,0.193C0.467,0.187 0.438,0.174 0.404,0.153C0.379,0.137 0.358,0.121 0.34,0.103C0.32,0.123 0.293,0.141 0.259,0.159C0.213,0.183 0.165,0.195 0.113,0.195C0.1,0.195 0.09,0.185 0.09,0.172L0.09,0.019C0.09,0.008 0.098,-0.001 0.109,-0.003C0.142,-0.01 0.168,-0.025 0.187,-0.049C0.206,-0.073 0.215,-0.101 0.215,-0.132L0.215,-0.223C0.215,-0.227 0.216,-0.23 0.218,-0.233ZM0.115,0.162L0.115,0.17L0.124,0.17C0.122,0.169 0.12,0.168 0.119,0.166C0.117,0.165 0.116,0.163 0.115,0.162ZM0.873,0.162C0.872,0.163 0.871,0.165 0.869,0.166C0.868,0.168 0.866,0.169 0.864,0.17L0.873,0.17L0.873,0.162ZM0.417,-0.2L0.261,-0.2L0.261,-0.132C0.261,-0.09 0.248,-0.053 0.223,-0.02C0.201,0.008 0.172,0.027 0.136,0.037L0.136,0.148C0.172,0.145 0.205,0.135 0.237,0.119C0.276,0.099 0.304,0.078 0.322,0.055C0.326,0.049 0.333,0.046 0.34,0.046C0.347,0.046 0.353,0.049 0.358,0.054C0.376,0.076 0.399,0.096 0.428,0.114C0.454,0.131 0.477,0.142 0.496,0.147C0.515,0.141 0.537,0.13 0.562,0.113C0.59,0.095 0.613,0.076 0.63,0.054C0.635,0.049 0.641,0.046 0.648,0.046C0.655,0.046 0.662,0.049 0.666,0.055C0.684,0.078 0.712,0.099 0.751,0.119C0.783,0.135 0.816,0.145 0.852,0.148L0.852,0.037C0.816,0.027 0.787,0.008 0.765,-0.02C0.74,-0.053 0.727,-0.09 0.727,-0.132L0.727,-0.2L0.57,-0.2L0.57,-0.13C0.57,-0.1 0.564,-0.074 0.553,-0.049C0.54,-0.023 0.525,-0.005 0.506,0.007C0.499,0.011 0.489,0.011 0.482,0.007C0.463,-0.005 0.447,-0.023 0.435,-0.049C0.423,-0.073 0.417,-0.1 0.417,-0.13L0.417,-0.2ZM0.648,0.072C0.646,0.074 0.644,0.077 0.642,0.079C0.646,0.078 0.65,0.078 0.654,0.079C0.652,0.077 0.65,0.074 0.648,0.072ZM0.34,0.072C0.338,0.074 0.336,0.077 0.334,0.079C0.338,0.078 0.342,0.078 0.346,0.079L0.34,0.072ZM0.118,0.02L0.115,0.021L0.115,0.024C0.116,0.022 0.117,0.021 0.118,0.02ZM0.87,0.02C0.871,0.021 0.872,0.022 0.873,0.024L0.873,0.021L0.87,0.02ZM0.497,-0.018C0.496,-0.017 0.495,-0.017 0.494,-0.017C0.493,-0.017 0.492,-0.017 0.491,-0.018L0.494,-0.015C0.495,-0.016 0.496,-0.017 0.497,-0.018ZM0.602,-0.409L0.584,-0.409C0.583,-0.358 0.567,-0.316 0.537,-0.284C0.515,-0.261 0.489,-0.246 0.457,-0.238C0.461,-0.234 0.463,-0.229 0.463,-0.223L0.463,-0.13C0.463,-0.108 0.467,-0.087 0.476,-0.069C0.481,-0.058 0.487,-0.049 0.494,-0.042C0.501,-0.049 0.506,-0.058 0.511,-0.069C0.52,-0.087 0.524,-0.108 0.524,-0.13L0.524,-0.223C0.524,-0.236 0.534,-0.246 0.547,-0.246L0.602,-0.246L0.602,-0.409ZM0.44,-0.256C0.43,-0.255 0.42,-0.254 0.409,-0.254L0.231,-0.254C0.234,-0.252 0.237,-0.249 0.239,-0.246C0.243,-0.239 0.244,-0.23 0.24,-0.223L0.24,-0.214C0.244,-0.22 0.252,-0.225 0.261,-0.225L0.417,-0.225C0.426,-0.225 0.434,-0.22 0.438,-0.214L0.438,-0.222C0.433,-0.229 0.431,-0.238 0.433,-0.246C0.435,-0.25 0.437,-0.253 0.44,-0.256ZM0.556,-0.221L0.549,-0.221L0.549,-0.214C0.551,-0.217 0.553,-0.219 0.556,-0.221ZM0.627,-0.257L0.627,-0.248C0.628,-0.241 0.625,-0.234 0.621,-0.229C0.619,-0.228 0.617,-0.226 0.616,-0.225L0.727,-0.225C0.736,-0.225 0.744,-0.22 0.748,-0.214L0.748,-0.223C0.747,-0.229 0.749,-0.236 0.752,-0.241C0.754,-0.243 0.755,-0.245 0.757,-0.246L0.648,-0.246C0.639,-0.246 0.631,-0.251 0.627,-0.257ZM0.648,-0.73L0.648,-0.586C0.648,-0.573 0.638,-0.563 0.625,-0.563L0.561,-0.563C0.548,-0.563 0.538,-0.573 0.538,-0.586L0.538,-0.599C0.538,-0.64 0.527,-0.673 0.503,-0.697C0.48,-0.722 0.449,-0.733 0.409,-0.733L0.195,-0.733C0.155,-0.733 0.124,-0.722 0.101,-0.697C0.077,-0.673 0.066,-0.64 0.066,-0.599L0.066,-0.413C0.066,-0.373 0.077,-0.34 0.101,-0.315C0.124,-0.291 0.155,-0.279 0.195,-0.279L0.409,-0.279C0.449,-0.279 0.48,-0.291 0.503,-0.315C0.527,-0.34 0.538,-0.373 0.538,-0.413L0.538,-0.432C0.538,-0.445 0.548,-0.455 0.561,-0.455L0.625,-0.455C0.638,-0.455 0.648,-0.445 0.648,-0.432L0.648,-0.271L0.751,-0.271C0.768,-0.271 0.782,-0.275 0.792,-0.284C0.801,-0.292 0.805,-0.303 0.805,-0.316L0.805,-0.73L0.648,-0.73ZM0.223,-0.464C0.223,-0.434 0.231,-0.416 0.24,-0.407C0.251,-0.397 0.265,-0.391 0.282,-0.391L0.322,-0.391C0.339,-0.391 0.353,-0.397 0.364,-0.407C0.373,-0.416 0.381,-0.434 0.381,-0.464L0.381,-0.548C0.381,-0.579 0.373,-0.597 0.363,-0.606C0.353,-0.616 0.339,-0.621 0.322,-0.621L0.282,-0.621C0.265,-0.621 0.251,-0.616 0.241,-0.606C0.231,-0.597 0.223,-0.579 0.223,-0.548L0.223,-0.464ZM0.623,-0.423L0.623,-0.43L0.616,-0.43C0.619,-0.428 0.621,-0.426 0.623,-0.423ZM0.57,-0.43L0.563,-0.43L0.563,-0.423C0.565,-0.426 0.567,-0.428 0.57,-0.43ZM0.332,-0.573C0.329,-0.575 0.326,-0.575 0.322,-0.575L0.282,-0.575C0.278,-0.575 0.275,-0.575 0.272,-0.573C0.272,-0.572 0.271,-0.568 0.27,-0.566C0.269,-0.561 0.269,-0.555 0.269,-0.548L0.269,-0.464C0.269,-0.457 0.269,-0.452 0.27,-0.447C0.271,-0.444 0.272,-0.44 0.272,-0.44C0.275,-0.438 0.278,-0.437 0.282,-0.437L0.322,-0.437C0.326,-0.437 0.329,-0.438 0.332,-0.44C0.332,-0.44 0.333,-0.444 0.334,-0.447C0.335,-0.452 0.335,-0.457 0.335,-0.464L0.335,-0.548C0.335,-0.555 0.335,-0.561 0.334,-0.566C0.333,-0.568 0.332,-0.572 0.332,-0.573ZM0.563,-0.595L0.563,-0.588L0.57,-0.588C0.567,-0.59 0.565,-0.592 0.563,-0.595ZM0.623,-0.595C0.621,-0.592 0.619,-0.59 0.616,-0.588L0.623,-0.588L0.623,-0.595ZM0.634,-0.751L0.627,-0.751L0.627,-0.744C0.629,-0.747 0.631,-0.749 0.634,-0.751ZM0.826,-0.744L0.826,-0.751L0.819,-0.751C0.822,-0.749 0.824,-0.747 0.826,-0.744Z" style="fill:white;"/>
            </g>
            <g transform="matrix(74.6454,0,0,74.6454,629.048,629.54)">
                <path d="M0.558,-0.722L0.558,-0.753C0.558,-0.766 0.568,-0.776 0.581,-0.776L0.784,-0.776C0.797,-0.776 0.807,-0.766 0.807,-0.753L0.807,-0.465L0.923,-0.465C0.936,-0.465 0.946,-0.455 0.946,-0.442L0.946,-0.332C0.946,-0.3 0.935,-0.278 0.915,-0.264C0.897,-0.252 0.874,-0.245 0.844,-0.245L0.807,-0.245L0.807,0.036C0.807,0.079 0.792,0.115 0.763,0.145C0.733,0.174 0.697,0.189 0.654,0.189L0.581,0.189C0.568,0.189 0.558,0.179 0.558,0.166L0.558,0.163C0.533,0.17 0.508,0.176 0.484,0.179C0.45,0.183 0.419,0.186 0.392,0.186L0.118,0.186C0.088,0.186 0.066,0.177 0.05,0.162C0.034,0.146 0.025,0.124 0.025,0.094L0.025,-0.75C0.025,-0.763 0.035,-0.773 0.048,-0.773L0.535,-0.773C0.548,-0.773 0.558,-0.763 0.558,-0.75L0.558,-0.722ZM0.761,-0.73L0.604,-0.73L0.604,-0.021C0.604,-0.011 0.598,-0.003 0.588,0.001C0.554,0.012 0.521,0.02 0.489,0.024C0.456,0.028 0.425,0.031 0.397,0.031L0.251,0.031C0.238,0.031 0.228,0.021 0.228,0.008L0.228,-0.594C0.228,-0.6 0.231,-0.606 0.235,-0.61C0.239,-0.614 0.245,-0.617 0.251,-0.617L0.477,-0.616C0.489,-0.616 0.499,-0.618 0.506,-0.623C0.512,-0.629 0.513,-0.638 0.513,-0.649L0.512,-0.727L0.071,-0.727L0.071,0.094C0.071,0.109 0.074,0.121 0.082,0.129C0.09,0.137 0.102,0.14 0.118,0.14L0.392,0.14C0.417,0.14 0.446,0.138 0.478,0.133C0.509,0.13 0.541,0.122 0.573,0.11C0.58,0.107 0.588,0.108 0.594,0.112C0.6,0.116 0.604,0.124 0.604,0.131L0.604,0.143L0.654,0.143C0.684,0.143 0.71,0.133 0.73,0.112C0.751,0.092 0.761,0.066 0.761,0.036L0.761,-0.268C0.761,-0.281 0.771,-0.291 0.784,-0.291L0.844,-0.291C0.862,-0.291 0.877,-0.294 0.888,-0.302C0.897,-0.308 0.9,-0.318 0.9,-0.332L0.9,-0.419L0.784,-0.419C0.771,-0.419 0.761,-0.429 0.761,-0.442L0.761,-0.73ZM0.558,-0.636C0.556,-0.615 0.548,-0.6 0.536,-0.59C0.523,-0.577 0.503,-0.57 0.477,-0.57L0.274,-0.571L0.274,-0.015L0.397,-0.015C0.423,-0.015 0.452,-0.017 0.483,-0.022L0.484,-0.022C0.508,-0.024 0.533,-0.03 0.558,-0.038L0.558,-0.636Z" style="fill:white;"/>
                <path d="M0.558,-0.722L0.558,-0.753C0.558,-0.766 0.568,-0.776 0.581,-0.776L0.784,-0.776C0.797,-0.776 0.807,-0.766 0.807,-0.753L0.807,-0.465L0.923,-0.465C0.936,-0.465 0.946,-0.455 0.946,-0.442L0.946,-0.332C0.946,-0.3 0.935,-0.278 0.915,-0.264C0.897,-0.252 0.874,-0.245 0.844,-0.245L0.807,-0.245L0.807,0.036C0.807,0.079 0.792,0.115 0.763,0.145C0.733,0.174 0.697,0.189 0.654,0.189L0.581,0.189C0.568,0.189 0.558,0.179 0.558,0.166L0.558,0.163C0.533,0.17 0.508,0.176 0.484,0.179C0.45,0.183 0.419,0.186 0.392,0.186L0.118,0.186C0.088,0.186 0.066,0.177 0.05,0.162C0.034,0.146 0.025,0.124 0.025,0.094L0.025,-0.75C0.025,-0.763 0.035,-0.773 0.048,-0.773L0.535,-0.773C0.548,-0.773 0.558,-0.763 0.558,-0.75L0.558,-0.722ZM0.579,0.134L0.565,0.139C0.568,0.14 0.57,0.141 0.573,0.143C0.579,0.148 0.583,0.155 0.583,0.163L0.583,0.164L0.59,0.164C0.584,0.16 0.579,0.152 0.579,0.143L0.579,0.134ZM0.761,-0.73L0.604,-0.73L0.604,-0.021C0.604,-0.011 0.598,-0.003 0.588,0.001C0.554,0.012 0.521,0.02 0.489,0.024C0.456,0.028 0.425,0.031 0.397,0.031L0.251,0.031C0.238,0.031 0.228,0.021 0.228,0.008L0.228,-0.594C0.228,-0.6 0.231,-0.606 0.235,-0.61C0.239,-0.614 0.245,-0.617 0.251,-0.617L0.477,-0.616C0.489,-0.616 0.499,-0.618 0.506,-0.623C0.512,-0.629 0.513,-0.638 0.513,-0.649L0.512,-0.727L0.071,-0.727L0.071,0.094C0.071,0.109 0.074,0.121 0.082,0.129C0.09,0.137 0.102,0.14 0.118,0.14L0.392,0.14C0.417,0.14 0.446,0.138 0.478,0.133C0.509,0.13 0.541,0.122 0.573,0.11C0.58,0.107 0.588,0.108 0.594,0.112C0.6,0.116 0.604,0.124 0.604,0.131L0.604,0.143L0.654,0.143C0.684,0.143 0.71,0.133 0.73,0.112C0.751,0.092 0.761,0.066 0.761,0.036L0.761,-0.268C0.761,-0.281 0.771,-0.291 0.784,-0.291L0.844,-0.291C0.862,-0.291 0.877,-0.294 0.888,-0.302C0.897,-0.308 0.9,-0.318 0.9,-0.332L0.9,-0.419L0.784,-0.419C0.771,-0.419 0.761,-0.429 0.761,-0.442L0.761,-0.73ZM0.253,-0.001L0.253,0.006L0.26,0.006C0.257,0.004 0.255,0.002 0.253,-0.001ZM0.558,-0.636C0.556,-0.615 0.548,-0.6 0.536,-0.59C0.523,-0.577 0.503,-0.57 0.477,-0.57L0.274,-0.571L0.274,-0.015L0.397,-0.015C0.423,-0.015 0.452,-0.017 0.483,-0.022L0.484,-0.022C0.508,-0.024 0.533,-0.03 0.558,-0.038L0.558,-0.636ZM0.579,-0.024C0.579,-0.023 0.578,-0.023 0.577,-0.022L0.579,-0.022L0.579,-0.024ZM0.793,-0.266L0.786,-0.266L0.786,-0.259C0.788,-0.262 0.79,-0.264 0.793,-0.266ZM0.921,-0.433L0.921,-0.44L0.914,-0.44C0.917,-0.438 0.919,-0.436 0.921,-0.433ZM0.786,-0.451L0.786,-0.444L0.793,-0.444C0.79,-0.446 0.788,-0.448 0.786,-0.451ZM0.261,-0.592L0.253,-0.592L0.253,-0.584C0.254,-0.586 0.255,-0.587 0.256,-0.589C0.258,-0.59 0.259,-0.591 0.261,-0.592ZM0.579,-0.709C0.575,-0.702 0.567,-0.697 0.558,-0.697C0.55,-0.697 0.542,-0.702 0.537,-0.709L0.538,-0.65C0.543,-0.657 0.551,-0.661 0.56,-0.661C0.568,-0.66 0.575,-0.656 0.579,-0.649L0.579,-0.709ZM0.057,-0.748L0.05,-0.748L0.05,-0.741C0.052,-0.744 0.054,-0.746 0.057,-0.748ZM0.533,-0.741L0.533,-0.748L0.526,-0.748C0.529,-0.746 0.531,-0.744 0.533,-0.741ZM0.59,-0.751L0.583,-0.751L0.583,-0.744C0.585,-0.747 0.587,-0.749 0.59,-0.751ZM0.782,-0.744L0.782,-0.751L0.775,-0.751C0.778,-0.749 0.78,-0.747 0.782,-0.744Z" style="fill:white;"/>
            </g>
        </g>
        <g transform="matrix(88.0029,-13.3999,10.9825,107.373,298.977,499.323)">
            <path d="M0.028,-0.599C0.028,-0.646 0.042,-0.684 0.069,-0.713C0.096,-0.742 0.133,-0.756 0.18,-0.756L0.394,-0.756C0.441,-0.756 0.478,-0.742 0.505,-0.713C0.532,-0.684 0.546,-0.646 0.546,-0.599L0.546,-0.413C0.546,-0.366 0.532,-0.329 0.505,-0.3C0.478,-0.271 0.441,-0.256 0.394,-0.256L0.18,-0.256C0.133,-0.256 0.096,-0.271 0.069,-0.3C0.042,-0.329 0.028,-0.366 0.028,-0.413L0.028,-0.599ZM0.231,-0.464C0.231,-0.443 0.234,-0.43 0.241,-0.424C0.248,-0.417 0.256,-0.414 0.267,-0.414L0.307,-0.414C0.318,-0.414 0.326,-0.417 0.333,-0.424C0.34,-0.43 0.343,-0.443 0.343,-0.464L0.343,-0.548C0.343,-0.569 0.34,-0.583 0.333,-0.589C0.326,-0.595 0.318,-0.598 0.307,-0.598L0.267,-0.598C0.256,-0.598 0.248,-0.595 0.241,-0.589C0.234,-0.583 0.231,-0.569 0.231,-0.548L0.231,-0.464ZM0.785,-0.588L0.917,-0.588L0.917,-0.474C0.917,-0.453 0.911,-0.438 0.899,-0.429C0.886,-0.42 0.869,-0.415 0.847,-0.415L0.785,-0.415L0.785,-0.317C0.785,-0.296 0.778,-0.28 0.764,-0.268C0.75,-0.255 0.731,-0.249 0.708,-0.249L0.582,-0.249L0.582,-0.753L0.785,-0.753L0.785,-0.588ZM0.06,-0.224L0.785,-0.224L0.785,0.103C0.785,0.123 0.779,0.138 0.768,0.149C0.757,0.16 0.741,0.166 0.72,0.166L0.125,0.166C0.104,0.166 0.088,0.16 0.077,0.149C0.066,0.138 0.06,0.123 0.06,0.103L0.06,-0.224ZM0.582,0.01L0.582,-0.068L0.262,-0.068L0.262,0.01L0.582,0.01Z" style="fill:rgb(180,210,255);fill-rule:nonzero;"/>
        </g>
        <g transform="matrix(88.1938,11.3795,-9.32662,107.606,370.823,485.24)">
            <path d="M0.833,-0.678C0.833,-0.659 0.828,-0.645 0.818,-0.635C0.808,-0.626 0.793,-0.622 0.774,-0.622L0.275,-0.622L0.275,-0.59L0.833,-0.59L0.833,-0.522C0.833,-0.503 0.828,-0.489 0.818,-0.48C0.808,-0.47 0.793,-0.466 0.774,-0.466L0.275,-0.466L0.275,-0.434L0.838,-0.434L0.838,-0.356C0.838,-0.337 0.833,-0.323 0.823,-0.314C0.813,-0.305 0.798,-0.3 0.779,-0.3L0.132,-0.3C0.113,-0.3 0.098,-0.305 0.088,-0.314C0.078,-0.323 0.073,-0.337 0.073,-0.356L0.073,-0.755L0.833,-0.755L0.833,-0.678ZM0.088,-0.116C0.067,-0.116 0.051,-0.121 0.04,-0.131C0.029,-0.14 0.024,-0.156 0.024,-0.177L0.024,-0.27L0.882,-0.27L0.882,-0.177C0.882,-0.156 0.877,-0.14 0.866,-0.131C0.855,-0.121 0.839,-0.116 0.818,-0.116L0.088,-0.116ZM0.139,0.166C0.118,0.166 0.102,0.16 0.091,0.149C0.079,0.138 0.073,0.123 0.073,0.103L0.073,-0.095L0.277,-0.095L0.277,0.011L0.833,0.011L0.833,0.103C0.833,0.123 0.827,0.138 0.815,0.149C0.803,0.16 0.787,0.166 0.766,0.166L0.139,0.166Z" style="fill:rgb(180,210,255);fill-rule:nonzero;"/>
        </g>
        <g transform="matrix(1.05267,0,0,1.28438,-37.9929,-152.18)">
            <g transform="matrix(106.426,0,0,106.426,294.391,617.488)">
                <path d="M0.072,-0.599C0.072,-0.646 0.086,-0.684 0.113,-0.713C0.14,-0.742 0.177,-0.756 0.224,-0.756L0.413,-0.756C0.46,-0.756 0.497,-0.742 0.524,-0.713C0.551,-0.684 0.565,-0.646 0.565,-0.599L0.565,-0.572L0.629,-0.572L0.629,-0.753L0.831,-0.753L0.831,0.036C0.831,0.073 0.819,0.103 0.794,0.128C0.769,0.153 0.738,0.166 0.701,0.166L0.629,0.166L0.629,-0.036L0.584,-0.036C0.577,-0.036 0.571,-0.037 0.565,-0.038L0.565,0.005C0.565,0.052 0.551,0.089 0.524,0.118C0.497,0.147 0.46,0.162 0.413,0.162L0.224,0.162C0.177,0.162 0.14,0.147 0.113,0.118C0.086,0.089 0.072,0.052 0.072,0.005L0.072,-0.599ZM0.275,-0.044C0.275,-0.023 0.278,-0.01 0.285,-0.004C0.292,0.003 0.3,0.006 0.311,0.006L0.326,0.006C0.337,0.006 0.345,0.003 0.352,-0.004C0.359,-0.01 0.362,-0.023 0.362,-0.044L0.362,-0.55C0.362,-0.571 0.359,-0.585 0.352,-0.591C0.345,-0.597 0.337,-0.6 0.326,-0.6L0.311,-0.6C0.3,-0.6 0.292,-0.597 0.285,-0.591C0.278,-0.585 0.275,-0.571 0.275,-0.55L0.275,-0.044ZM0.584,-0.415C0.577,-0.415 0.571,-0.416 0.565,-0.417L0.565,-0.19L0.629,-0.19L0.629,-0.415L0.584,-0.415Z" style="fill:url(#_Linear1);fill-rule:nonzero;"/>
            </g>
            <g transform="matrix(106.426,0,0,106.426,390.813,617.488)">
                <path d="M0.832,-0.551C0.832,-0.532 0.828,-0.518 0.819,-0.51C0.81,-0.502 0.795,-0.498 0.776,-0.498L0.276,-0.498L0.276,-0.474L0.84,-0.474L0.84,-0.407C0.84,-0.388 0.835,-0.374 0.825,-0.365C0.815,-0.356 0.8,-0.351 0.781,-0.351L0.133,-0.351C0.114,-0.351 0.099,-0.356 0.089,-0.365C0.079,-0.374 0.074,-0.388 0.074,-0.407L0.074,-0.61L0.629,-0.61L0.629,-0.633L0.125,-0.633C0.106,-0.633 0.092,-0.637 0.083,-0.645C0.074,-0.653 0.069,-0.667 0.069,-0.686L0.069,-0.754L0.832,-0.754L0.832,-0.551ZM0.088,-0.183C0.067,-0.183 0.051,-0.188 0.04,-0.198C0.029,-0.207 0.024,-0.223 0.024,-0.244L0.024,-0.324L0.882,-0.324L0.882,-0.244C0.882,-0.223 0.877,-0.207 0.866,-0.198C0.855,-0.188 0.839,-0.183 0.818,-0.183L0.088,-0.183ZM0.072,-0.154L0.834,-0.154L0.834,0.103C0.834,0.123 0.828,0.138 0.817,0.149C0.806,0.16 0.79,0.166 0.769,0.166L0.137,0.166C0.116,0.166 0.1,0.16 0.089,0.149C0.078,0.138 0.072,0.123 0.072,0.103L0.072,-0.154ZM0.631,0.022L0.631,-0.007L0.274,-0.007L0.274,0.022L0.631,0.022Z" style="fill:url(#_Linear2);fill-rule:nonzero;"/>
            </g>
        </g>
        <g transform="matrix(78.5771,0,0,95.8729,481.807,656.387)">
            <path d="M0.072,-0.599C0.072,-0.646 0.086,-0.684 0.113,-0.713C0.14,-0.742 0.177,-0.756 0.224,-0.756L0.413,-0.756C0.46,-0.756 0.497,-0.742 0.524,-0.713C0.551,-0.684 0.565,-0.646 0.565,-0.599L0.565,0.005C0.565,0.052 0.551,0.089 0.524,0.118C0.497,0.147 0.46,0.162 0.413,0.162L0.224,0.162C0.177,0.162 0.14,0.147 0.113,0.118C0.086,0.089 0.072,0.052 0.072,0.005L0.072,-0.599ZM0.275,-0.044C0.275,-0.023 0.278,-0.01 0.285,-0.004C0.292,0.003 0.3,0.006 0.311,0.006L0.326,0.006C0.337,0.006 0.345,0.003 0.352,-0.004C0.359,-0.01 0.362,-0.023 0.362,-0.044L0.362,-0.55C0.362,-0.571 0.359,-0.585 0.352,-0.591C0.345,-0.597 0.337,-0.6 0.326,-0.6L0.311,-0.6C0.3,-0.6 0.292,-0.597 0.285,-0.591C0.278,-0.585 0.275,-0.571 0.275,-0.55L0.275,-0.044ZM0.824,0.036C0.824,0.073 0.812,0.103 0.787,0.128C0.761,0.153 0.731,0.166 0.694,0.166L0.621,0.166L0.621,-0.753L0.824,-0.753L0.824,0.036Z" style="fill:rgb(180,210,255);fill-rule:nonzero;"/>
        </g>
        <g transform="matrix(78.5771,0,0,95.8729,552.998,656.387)">
            <path d="M0.828,-0.316C0.828,-0.295 0.821,-0.279 0.807,-0.267C0.793,-0.254 0.774,-0.248 0.751,-0.248L0.625,-0.248L0.625,-0.432L0.561,-0.432L0.561,-0.413C0.561,-0.366 0.547,-0.329 0.52,-0.3C0.493,-0.271 0.456,-0.256 0.409,-0.256L0.195,-0.256C0.148,-0.256 0.111,-0.271 0.084,-0.3C0.057,-0.329 0.043,-0.366 0.043,-0.413L0.043,-0.599C0.043,-0.646 0.057,-0.684 0.084,-0.713C0.111,-0.742 0.148,-0.756 0.195,-0.756L0.409,-0.756C0.456,-0.756 0.493,-0.742 0.52,-0.713C0.547,-0.684 0.561,-0.646 0.561,-0.599L0.561,-0.586L0.625,-0.586L0.625,-0.753L0.828,-0.753L0.828,-0.316ZM0.497,0.171C0.474,0.166 0.447,0.153 0.416,0.133C0.385,0.114 0.359,0.092 0.34,0.069C0.321,0.094 0.29,0.117 0.248,0.139C0.206,0.161 0.161,0.172 0.113,0.172L0.113,0.019C0.152,0.012 0.183,-0.006 0.205,-0.035C0.227,-0.063 0.238,-0.095 0.238,-0.132L0.238,-0.223L0.44,-0.223L0.44,-0.13C0.44,-0.104 0.445,-0.08 0.456,-0.059C0.466,-0.038 0.479,-0.022 0.494,-0.013C0.509,-0.022 0.522,-0.038 0.532,-0.059C0.542,-0.08 0.547,-0.104 0.547,-0.13L0.547,-0.223L0.75,-0.223L0.75,-0.132C0.75,-0.095 0.761,-0.063 0.783,-0.035C0.805,-0.006 0.836,0.012 0.875,0.019L0.875,0.172C0.827,0.172 0.782,0.161 0.74,0.139C0.698,0.117 0.667,0.094 0.648,0.069C0.629,0.092 0.605,0.113 0.575,0.132C0.544,0.152 0.518,0.165 0.497,0.171ZM0.246,-0.464C0.246,-0.443 0.249,-0.43 0.256,-0.424C0.263,-0.417 0.271,-0.414 0.282,-0.414L0.322,-0.414C0.333,-0.414 0.341,-0.417 0.348,-0.424C0.355,-0.43 0.358,-0.443 0.358,-0.464L0.358,-0.548C0.358,-0.569 0.355,-0.583 0.348,-0.589C0.341,-0.595 0.333,-0.598 0.322,-0.598L0.282,-0.598C0.271,-0.598 0.263,-0.595 0.256,-0.589C0.249,-0.583 0.246,-0.569 0.246,-0.548L0.246,-0.464Z" style="fill:rgb(180,210,255);fill-rule:nonzero;"/>
        </g>
        <g transform="matrix(78.5771,0,0,95.8729,624.188,656.387)">
            <path d="M0.784,-0.442L0.923,-0.442L0.923,-0.332C0.923,-0.309 0.916,-0.293 0.902,-0.283C0.887,-0.273 0.868,-0.268 0.844,-0.268L0.784,-0.268L0.784,0.036C0.784,0.073 0.772,0.103 0.747,0.128C0.722,0.153 0.691,0.166 0.654,0.166L0.581,0.166L0.581,0.131C0.547,0.144 0.514,0.152 0.481,0.156C0.448,0.161 0.418,0.163 0.392,0.163L0.118,0.163C0.095,0.163 0.078,0.157 0.066,0.145C0.054,0.134 0.048,0.117 0.048,0.094L0.048,-0.75L0.535,-0.75L0.536,-0.649C0.536,-0.63 0.531,-0.616 0.521,-0.607C0.511,-0.598 0.496,-0.593 0.477,-0.593L0.251,-0.594L0.251,0.008L0.397,0.008C0.424,0.008 0.454,0.006 0.486,0.001C0.517,-0.002 0.548,-0.01 0.581,-0.021L0.581,-0.753L0.784,-0.753L0.784,-0.442Z" style="fill:rgb(180,210,255);fill-rule:nonzero;"/>
        </g>
        <g transform="matrix(0.953151,-0.545132,0.446789,1.16295,-249.242,80.0737)">
            <path d="M298.493,500.005C303.791,490.749 314.387,490.749 319.685,495.377C324.983,500.005 324.983,509.261 319.685,518.518C315.976,525.46 306.44,532.402 298.493,537.03C290.546,532.402 281.01,525.46 277.302,518.518C272.004,509.261 272.004,500.005 277.302,495.377C282.6,490.749 293.195,490.749 298.493,500.005Z" style="fill:url(#_Linear3);"/>
        </g>
        <g transform="matrix(0.451989,0.245129,-0.200907,0.551477,649.437,203.799)">
            <path d="M298.493,500.005C303.791,490.749 314.387,490.749 319.685,495.377C324.983,500.005 324.983,509.261 319.685,518.518C315.976,525.46 306.44,532.402 298.493,537.03C290.546,532.402 281.01,525.46 277.302,518.518C272.004,509.261 272.004,500.005 277.302,495.377C282.6,490.749 293.195,490.749 298.493,500.005Z" style="fill:url(#_Linear4);"/>
        </g>
        <g transform="matrix(0.193609,0.105001,-0.0860584,0.236225,689.439,389.791)">
            <path d="M298.493,500.005C303.791,490.749 314.387,490.749 319.685,495.377C324.983,500.005 324.983,509.261 319.685,518.518C315.976,525.46 306.44,532.402 298.493,537.03C290.546,532.402 281.01,525.46 277.302,518.518C272.004,509.261 272.004,500.005 277.302,495.377C282.6,490.749 293.195,490.749 298.493,500.005Z" style="fill:url(#_Linear5);"/>
        </g>
    </g>
    <defs>
        <linearGradient id="_Linear1" x1="0" y1="0" x2="1" y2="0" gradientUnits="userSpaceOnUse" gradientTransform="matrix(4.11934e-17,0.672739,-0.672739,4.11934e-17,1.19468,-0.679739)"><stop offset="0" style="stop-color:rgb(194,216,255);stop-opacity:1"/><stop offset="1" style="stop-color:rgb(136,183,255);stop-opacity:1"/></linearGradient>
        <linearGradient id="_Linear2" x1="0" y1="0" x2="1" y2="0" gradientUnits="userSpaceOnUse" gradientTransform="matrix(4.11934e-17,0.672739,-0.672739,4.11934e-17,0.288678,-0.679739)"><stop offset="0" style="stop-color:rgb(194,216,255);stop-opacity:1"/><stop offset="1" style="stop-color:rgb(136,183,255);stop-opacity:1"/></linearGradient>
        <linearGradient id="_Linear3" x1="0" y1="0" x2="1" y2="0" gradientUnits="userSpaceOnUse" gradientTransform="matrix(2.22051e-15,-36.2636,36.2636,2.22051e-15,289.114,528.056)"><stop offset="0" style="stop-color:rgb(194,216,255);stop-opacity:1"/><stop offset="1" style="stop-color:rgb(136,183,255);stop-opacity:1"/></linearGradient>
        <linearGradient id="_Linear4" x1="0" y1="0" x2="1" y2="0" gradientUnits="userSpaceOnUse" gradientTransform="matrix(2.22051e-15,-36.2636,36.2636,2.22051e-15,289.114,528.056)"><stop offset="0" style="stop-color:rgb(194,216,255);stop-opacity:1"/><stop offset="1" style="stop-color:rgb(136,183,255);stop-opacity:1"/></linearGradient>
        <linearGradient id="_Linear5" x1="0" y1="0" x2="1" y2="0" gradientUnits="userSpaceOnUse" gradientTransform="matrix(2.22051e-15,-36.2636,36.2636,2.22051e-15,289.114,528.056)"><stop offset="0" style="stop-color:rgb(194,216,255);stop-opacity:1"/><stop offset="1" style="stop-color:rgb(136,183,255);stop-opacity:1"/></linearGradient>
    </defs>
</svg>
